# Blender v2.80 (sub 74) OBJ File: 'Models 3.blend'
# www.blender.org
mtllib couch13.mtl
o Cube.001_Cube
v 145.000000 0.000000 29.999998
v 5.000000 0.000000 29.999998
v 145.000000 0.000000 0.000000
v 5.000000 0.000000 0.000000
v 140.000000 0.000000 29.999998
v 140.000000 0.000000 0.000000
v 9.999999 0.000000 29.999998
v 9.999999 0.000000 0.000000
v 145.000000 0.000000 5.000000
v 5.000000 0.000000 5.000000
v 140.000000 0.000000 5.000000
v 9.999999 0.000000 5.000000
v 145.000000 -10.000001 5.000000
v 145.000000 -10.000001 29.999998
v 9.999999 -10.000001 29.999998
v 5.000000 -10.000001 29.999998
v 5.000000 -10.000001 5.000000
v 5.000000 -10.000001 0.000000
v 140.000000 -10.000001 0.000000
v 145.000000 -10.000001 0.000000
v 140.000000 -10.000001 29.999998
v 9.999999 -10.000001 0.000000
v 140.000000 -10.000001 5.000000
v 9.999999 -10.000001 5.000000
v 145.000000 -20.000000 5.000000
v 145.000000 -20.000000 29.999998
v 9.999999 -20.000000 29.999998
v 5.000000 -20.000000 29.999998
v 5.000000 -20.000000 5.000000
v 5.000000 -20.000000 0.000000
v 140.000000 -20.000000 0.000000
v 145.000000 -20.000000 0.000000
v 140.000000 -20.000000 29.999998
v 9.999999 -20.000000 0.000000
v 140.000000 -20.000000 5.000000
v 9.999999 -20.000000 5.000000
v 5.000000 -30.000002 5.000000
v 5.000000 -30.000002 0.000000
v 140.000000 -30.000002 0.000000
v 145.000000 -30.000002 0.000000
v 9.999999 -30.000002 0.000000
v 140.000000 -30.000002 5.000000
v 9.999999 -30.000002 5.000000
v 145.000000 -30.000002 5.000000
vt 1.000000 1.000000
vt 1.000000 1.000000
vt 1.000000 1.000000
vt 1.000000 1.000000
vt 0.000000 1.000000
vt 0.000000 1.000000
vt 0.000000 1.000000
vt 0.000000 1.000000
vt 0.000000 0.000000
vt 1.000000 0.000000
vt 0.000000 0.000000
vt 1.000000 0.000000
vt 1.000000 1.000000
vt 1.000000 0.000000
vt 1.000000 0.000000
vt 1.000000 1.000000
vt 1.000000 1.000000
vt 1.000000 1.000000
vt 1.000000 1.000000
vt 1.000000 1.000000
vt 0.000000 0.000000
vt 0.000000 1.000000
vt 0.000000 1.000000
vt 0.000000 0.000000
vt 1.000000 1.000000
vt 0.000000 1.000000
vt 0.000000 1.000000
vt 1.000000 1.000000
vt 0.000000 1.000000
vt 0.000000 1.000000
vt 0.000000 0.000000
vt 1.000000 0.000000
vt 1.000000 1.000000
vt 1.000000 1.000000
vt 1.000000 1.000000
vt 0.000000 1.000000
vt 0.000000 0.000000
vt 0.000000 1.000000
vt 1.000000 0.000000
vt 0.000000 1.000000
vt 1.000000 1.000000
vt 0.000000 1.000000
vt 0.000000 1.000000
vt 0.000000 1.000000
vn 0.0000 1.0000 0.0000
vn 1.0000 0.0000 0.0000
vn -1.0000 0.0000 0.0000
vn 0.0000 -1.0000 0.0000
vn 0.0000 0.0000 -1.0000
vn 0.0000 0.0000 1.0000
usemtl None
s off
f 12/1/1 8/2/1 4/3/1 10/4/1
f 9/5/1 3/6/1 6/7/1 11/8/1
f 11/8/1 6/7/1 8/2/1 12/1/1
f 5/9/1 11/8/1 12/1/1 7/10/1
f 1/11/1 9/5/1 11/8/1 5/9/1
f 7/10/1 12/1/1 10/4/1 2/12/1
f 24/13/2 15/14/2 27/15/2 36/16/2
f 17/17/3 18/18/3 30/19/3 29/20/3
f 21/21/3 23/22/3 35/23/3 33/24/3
f 21/21/4 15/14/4 24/13/4 23/22/4
f 22/25/5 19/26/5 31/27/5 34/28/5
f 18/18/5 22/25/5 34/28/5 30/19/5
f 4/3/5 8/2/5 22/25/5 18/18/5
f 8/2/5 6/7/5 19/26/5 22/25/5
f 10/4/3 4/3/3 18/18/3 17/17/3
f 6/7/5 3/6/5 20/29/5 19/26/5
f 3/6/2 9/5/2 13/30/2 20/29/2
f 9/5/2 1/11/2 14/31/2 13/30/2
f 5/9/6 7/10/6 15/14/6 21/21/6
f 1/11/6 5/9/6 21/21/6 14/31/6
f 2/12/3 10/4/3 17/17/3 16/32/3
f 7/10/6 2/12/6 16/32/6 15/14/6
f 29/20/3 30/19/3 38/33/3 37/34/3
f 35/23/6 36/16/6 43/35/6 42/36/6
f 36/16/6 29/20/6 37/34/6 43/35/6
f 26/37/4 33/24/4 35/23/4 25/38/4
f 27/15/4 28/39/4 29/20/4 36/16/4
f 19/26/5 20/29/5 32/40/5 31/27/5
f 20/29/2 13/30/2 25/38/2 32/40/2
f 13/30/2 14/31/2 26/37/2 25/38/2
f 23/22/6 24/13/6 36/16/6 35/23/6
f 14/31/6 21/21/6 33/24/6 26/37/6
f 16/32/3 17/17/3 29/20/3 28/39/3
f 15/14/6 16/32/6 28/39/6 27/15/6
f 43/35/4 37/34/4 38/33/4 41/41/4
f 44/42/4 42/36/4 39/43/4 40/44/4
f 42/36/4 43/35/4 41/41/4 39/43/4
f 32/40/2 25/38/2 44/42/2 40/44/2
f 30/19/5 34/28/5 41/41/5 38/33/5
f 34/28/5 31/27/5 39/43/5 41/41/5
f 25/38/6 35/23/6 42/36/6 44/42/6
f 31/27/5 32/40/5 40/44/5 39/43/5
