# Blender v2.80 (sub 74) OBJ File: 'Models 2.blend'
# www.blender.org
mtllib chair11.mtl
o Cube.001_Cube
v 40.000000 -17.500002 49.999996
v 40.000000 -19.999998 49.999996
v 40.000000 -17.500002 20.000002
v 40.000000 -19.999998 20.000002
v 10.000001 -17.500002 49.999996
v 10.000001 -19.999998 49.999996
v 10.000001 -17.500002 20.000002
v 10.000001 -19.999998 20.000002
v 38.000000 -17.500002 20.000002
v 38.000000 -19.999998 20.000002
v 38.000000 -17.500002 49.999996
v 38.000000 -19.999998 49.999996
v 12.000001 -19.999998 20.000002
v 12.000001 -17.500002 49.999996
v 12.000001 -17.500002 20.000002
v 12.000001 -19.999998 49.999996
v 40.000000 -17.500002 22.000004
v 40.000000 -19.999998 22.000004
v 10.000001 -17.500002 22.000004
v 10.000001 -19.999998 22.000004
v 38.000000 -19.999998 22.000004
v 38.000000 -17.500002 22.000004
v 12.000001 -19.999998 22.000004
v 12.000001 -17.500002 22.000004
v 40.000000 -17.500002 48.000000
v 10.000001 -19.999998 48.000000
v 38.000000 -19.999998 48.000000
v 38.000000 -17.500002 48.000000
v 12.000001 -19.999998 48.000000
v 12.000001 -17.500002 48.000000
v 40.000000 -19.999998 48.000000
v 10.000001 -17.500002 48.000000
v 35.000000 -17.500002 20.000002
v 35.000000 -19.999998 49.999996
v 35.000000 -19.999998 20.000002
v 35.000000 -17.500002 49.999996
v 35.000000 -17.500002 22.000004
v 35.000000 -19.999998 22.000004
v 35.000000 -17.500002 48.000000
v 35.000000 -19.999998 48.000000
v 15.000001 -19.999998 20.000002
v 15.000001 -17.500002 49.999996
v 15.000001 -19.999998 22.000004
v 15.000001 -19.999998 48.000000
v 15.000001 -17.500002 20.000002
v 15.000001 -19.999998 49.999996
v 15.000001 -17.500002 22.000004
v 15.000001 -17.500002 48.000000
v 40.000000 -19.999998 25.000004
v 10.000001 -17.500002 25.000004
v 40.000000 -17.500002 25.000004
v 10.000001 -19.999998 25.000004
v 38.000000 -19.999998 25.000004
v 38.000000 -17.500002 25.000004
v 12.000001 -19.999998 25.000004
v 12.000001 -17.500002 25.000004
v 35.000000 -19.999998 25.000004
v 35.000000 -17.500002 25.000004
v 15.000001 -19.999998 25.000004
v 15.000001 -17.500002 25.000004
v 40.000000 -17.500002 45.000000
v 10.000001 -19.999998 45.000000
v 38.000000 -19.999998 45.000000
v 38.000000 -17.500002 45.000000
v 12.000001 -19.999998 45.000000
v 12.000001 -17.500002 45.000000
v 35.000000 -19.999998 45.000000
v 35.000000 -17.500002 45.000000
v 15.000001 -19.999998 45.000000
v 15.000001 -17.500002 45.000000
v 40.000000 -19.999998 45.000000
v 10.000001 -17.500002 45.000000
v 35.000000 0.000000 22.000004
v 38.000000 0.000000 22.000004
v 38.000000 0.000000 45.000000
v 38.000000 0.000000 48.000000
v 12.000001 0.000000 45.000000
v 12.000001 0.000000 48.000000
v 35.000000 0.000000 48.000000
v 35.000000 0.000000 45.000000
v 12.000001 0.000000 22.000004
v 15.000001 0.000000 22.000004
v 15.000001 0.000000 48.000000
v 15.000001 0.000000 45.000000
v 38.000000 0.000000 25.000004
v 12.000001 0.000000 25.000004
v 35.000000 0.000000 25.000004
v 15.000001 0.000000 25.000004
v 40.000000 -55.000000 22.000004
v 40.000000 -55.000000 20.000002
v 12.000001 -55.000000 20.000002
v 10.000001 -55.000000 20.000002
v 38.000000 -55.000000 20.000002
v 15.000001 -55.000000 20.000002
v 10.000001 -55.000000 22.000004
v 38.000000 -55.000000 22.000004
v 12.000001 -55.000000 22.000004
v 15.000001 -55.000000 22.000004
v 35.000000 -55.000000 20.000002
v 35.000000 -55.000000 22.000004
vt 0.375000 0.250000
vt 0.625000 0.250000
vt 0.625000 0.250000
vt 0.375000 0.250000
vt 0.375000 0.500000
vt 0.625000 0.500000
vt 0.625000 0.500000
vt 0.375000 0.500000
vt 0.375000 0.750000
vt 0.625000 0.750000
vt 0.625000 0.750000
vt 0.375000 0.750000
vt 0.375000 1.000000
vt 0.625000 1.000000
vt 0.625000 1.000000
vt 0.375000 1.000000
vt 0.375000 0.750000
vt 0.375000 0.750000
vt 0.875000 0.750000
vt 0.875000 0.750000
vt 0.875000 0.750000
vt 0.875000 0.750000
vt 0.875000 0.750000
vt 0.875000 0.750000
vt 0.125000 0.750000
vt 0.125000 0.750000
vt 0.125000 0.750000
vt 0.125000 0.750000
vt 0.375000 1.000000
vt 0.625000 1.000000
vt 0.625000 0.250000
vt 0.375000 0.250000
vt 0.625000 0.750000
vt 0.625000 0.750000
vt 0.375000 0.750000
vt 0.375000 0.750000
vt 0.375000 0.500000
vt 0.625000 0.500000
vt 0.375000 0.500000
vt 0.375000 0.500000
vt 0.625000 0.250000
vt 0.625000 0.250000
vt 0.125000 0.500000
vt 0.125000 0.500000
vt 0.125000 0.500000
vt 0.125000 0.500000
vt 0.625000 0.500000
vt 0.625000 0.500000
vt 0.625000 0.500000
vt 0.625000 0.500000
vt 0.625000 0.500000
vt 0.625000 0.500000
vt 0.375000 0.500000
vt 0.625000 0.500000
vt 0.375000 0.250000
vt 0.625000 0.250000
vt 0.375000 0.000000
vt 0.625000 0.000000
vt 0.625000 0.000000
vt 0.375000 0.000000
vt 0.375000 0.750000
vt 0.375000 0.750000
vt 0.625000 0.750000
vt 0.625000 0.750000
vt 0.125000 0.750000
vt 0.125000 0.750000
vt 0.875000 0.750000
vt 0.875000 0.750000
vt 0.875000 0.750000
vt 0.375000 0.750000
vt 0.375000 0.750000
vt 0.625000 0.750000
vt 0.625000 0.750000
vt 0.125000 0.750000
vt 0.125000 0.750000
vt 0.125000 0.750000
vt 0.625000 0.250000
vt 0.625000 0.250000
vt 0.625000 0.500000
vt 0.125000 0.500000
vt 0.125000 0.500000
vt 0.375000 0.250000
vt 0.125000 0.750000
vt 0.625000 0.750000
vt 0.625000 0.250000
vt 0.125000 0.750000
vt 0.375000 0.750000
vt 0.375000 0.500000
vt 0.125000 0.500000
vt 0.625000 0.500000
vt 0.625000 0.500000
vt 0.125000 0.500000
vt 0.125000 0.500000
vt 0.125000 0.500000
vt 0.875000 0.500000
vt 0.875000 0.500000
vt 0.625000 0.500000
vt 0.375000 0.500000
vt 0.375000 0.500000
vt 0.875000 0.500000
vt 0.875000 0.500000
vt 0.875000 0.500000
vt 0.875000 0.500000
vt 0.125000 0.500000
vt 0.375000 0.500000
vt 0.375000 0.500000
vt 0.375000 0.000000
vt 0.625000 0.000000
vt 0.375000 0.750000
vt 0.375000 0.750000
vt 0.125000 0.750000
vt 0.125000 0.750000
vt 0.125000 0.500000
vt 0.125000 0.500000
vt 0.375000 0.500000
vt 0.375000 0.500000
vt 0.625000 0.500000
vt 0.875000 0.500000
vt 0.875000 0.500000
vt 0.875000 0.500000
vt 0.875000 0.500000
vt 0.875000 0.500000
vt 0.875000 0.500000
vn 1.0000 0.0000 0.0000
vn 0.0000 0.0000 -1.0000
vn -1.0000 0.0000 0.0000
vn 0.0000 0.0000 1.0000
vn 0.0000 1.0000 0.0000
vn 0.0000 -1.0000 0.0000
usemtl None
s off
f 17/1/1 18/2/1 4/3/1 3/4/1
f 15/5/2 13/6/2 8/7/2 7/8/2
f 32/9/3 26/10/3 6/11/3 5/12/3
f 11/13/4 12/14/4 2/15/4 1/16/4
f 30/17/5 32/9/5 5/12/5 14/18/5
f 27/19/6 31/20/6 2/21/6 12/22/6
f 40/23/6 27/19/6 12/22/6 34/24/6
f 25/25/5 28/26/5 11/27/5 1/28/5
f 36/29/4 34/30/4 12/14/4 11/13/4
f 3/4/2 4/3/2 10/31/2 9/32/2
f 5/12/4 6/11/4 16/33/4 14/18/4
f 26/10/6 29/34/6 16/33/6 6/11/6
f 48/35/5 30/17/5 14/18/5 42/36/5
f 45/37/2 41/38/2 13/6/2 15/5/2
f 45/37/5 15/5/5 24/39/5 47/40/5
f 4/3/1 18/2/1 89/41/1 90/42/1
f 3/43/5 9/44/5 22/45/5 17/46/5
f 43/47/4 23/48/4 97/49/4 98/50/4
f 8/7/2 13/6/2 91/51/2 92/52/2
f 15/5/5 7/8/5 19/53/5 24/39/5
f 7/8/3 8/7/3 20/54/3 19/53/3
f 51/55/1 49/56/1 18/2/1 17/1/1
f 1/57/1 2/58/1 31/59/1 25/60/1
f 30/17/4 48/35/4 83/61/4 78/62/4
f 62/63/6 65/64/6 29/34/6 26/10/6
f 61/65/5 64/66/5 28/26/5 25/25/5
f 67/67/6 63/68/6 27/19/6 40/23/6
f 63/68/6 71/69/6 31/20/6 27/19/6
f 66/70/5 72/71/5 32/9/5 30/17/5
f 72/71/3 62/63/3 26/10/3 32/9/3
f 69/72/6 67/67/6 40/23/6 44/73/6
f 39/74/4 28/26/4 76/75/4 79/76/4
f 41/38/2 35/77/2 99/78/2 94/79/2
f 9/44/5 33/80/5 37/81/5 22/45/5
f 9/32/2 10/31/2 35/77/2 33/82/2
f 28/26/5 39/74/5 36/83/5 11/27/5
f 42/36/4 46/84/4 34/30/4 36/29/4
f 44/73/6 40/23/6 34/24/6 46/84/6
f 29/34/6 44/73/6 46/84/6 16/33/6
f 14/18/4 16/33/4 46/84/4 42/36/4
f 35/77/2 10/31/2 93/85/2 99/78/2
f 65/64/6 69/72/6 44/73/6 29/34/6
f 68/86/5 70/87/5 48/35/5 39/74/5
f 33/80/5 45/37/5 47/40/5 37/81/5
f 33/82/2 35/77/2 41/38/2 45/37/2
f 39/74/5 48/35/5 42/36/5 36/83/5
f 37/81/5 47/40/5 60/88/5 58/89/5
f 23/48/6 43/47/6 59/90/6 55/91/6
f 54/92/1 22/45/1 74/93/1 85/94/1
f 43/47/6 38/95/6 57/96/6 59/90/6
f 19/53/3 20/54/3 52/97/3 50/98/3
f 24/39/5 19/53/5 50/98/5 56/99/5
f 21/100/6 18/101/6 49/102/6 53/103/6
f 38/95/6 21/100/6 53/103/6 57/96/6
f 17/46/5 22/45/5 54/92/5 51/104/5
f 20/54/6 23/48/6 55/91/6 52/97/6
f 47/40/2 24/39/2 81/105/2 82/106/2
f 61/107/1 71/108/1 49/56/1 51/55/1
f 25/60/1 31/59/1 71/108/1 61/107/1
f 58/89/5 60/88/5 70/87/5 68/86/5
f 55/91/6 59/90/6 69/72/6 65/64/6
f 54/92/5 58/89/5 68/86/5 64/66/5
f 59/90/6 57/96/6 67/67/6 69/72/6
f 50/98/3 52/97/3 62/63/3 72/71/3
f 56/99/5 50/98/5 72/71/5 66/70/5
f 53/103/6 49/102/6 71/69/6 63/68/6
f 57/96/6 53/103/6 63/68/6 67/67/6
f 51/104/5 54/92/5 64/66/5 61/65/5
f 52/97/6 55/91/6 65/64/6 62/63/6
f 60/88/5 56/99/5 66/70/5 70/87/5
f 84/109/5 77/110/5 78/62/5 83/61/5
f 75/111/5 80/112/5 79/76/5 76/75/5
f 74/93/5 73/113/5 87/114/5 85/94/5
f 82/106/5 81/105/5 86/115/5 88/116/5
f 68/86/3 39/74/3 79/76/3 80/112/3
f 58/89/4 54/92/4 85/94/4 87/114/4
f 28/26/1 64/66/1 75/111/1 76/75/1
f 24/39/3 56/99/3 86/115/3 81/105/3
f 56/99/4 60/88/4 88/116/4 86/115/4
f 66/70/3 30/17/3 78/62/3 77/110/3
f 37/81/3 58/89/3 87/114/3 73/113/3
f 64/66/2 68/86/2 80/112/2 75/111/2
f 70/87/2 66/70/2 77/110/2 84/109/2
f 22/45/2 37/81/2 73/113/2 74/93/2
f 48/35/1 70/87/1 84/109/1 83/61/1
f 60/88/1 47/40/1 82/106/1 88/116/1
f 92/52/6 91/51/6 97/49/6 95/117/6
f 99/118/6 93/119/6 96/120/6 100/121/6
f 93/119/6 90/122/6 89/123/6 96/120/6
f 94/79/6 99/118/6 100/121/6 98/50/6
f 91/51/6 94/79/6 98/50/6 97/49/6
f 18/101/4 21/100/4 96/120/4 89/123/4
f 10/31/2 4/3/2 90/42/2 93/85/2
f 13/6/2 41/38/2 94/79/2 91/51/2
f 23/48/4 20/54/4 95/117/4 97/49/4
f 38/95/4 43/47/4 98/50/4 100/121/4
f 21/100/4 38/95/4 100/121/4 96/120/4
f 20/54/3 8/7/3 92/52/3 95/117/3
