# Blender v2.80 (sub 74) OBJ File: ''
# www.blender.org
mtllib couch31.mtl
o Cube.001_Cube.006
v 0.200000 -0.000000 0.100000
v 0.200000 0.000000 0.000000
v 0.100000 0.000000 0.000000
v 0.100000 -0.000000 0.100000
v 2.900000 -0.000000 0.100000
v 2.900000 0.000000 0.000000
v 2.800000 0.000000 0.000000
v 2.800000 -0.000000 0.100000
v 2.800000 -0.000000 0.600000
v 0.200000 -0.000000 0.600000
v 2.900000 -0.000000 0.600000
v 0.100000 -0.000000 0.600000
v 0.200000 -0.200000 0.100000
v 0.200000 -0.200000 0.600000
v 0.200000 -0.400000 0.600000
v 0.200000 -0.400000 0.100000
v 0.100000 -0.200000 0.100000
v 0.100000 -0.200000 -0.000000
v 0.100000 -0.400000 -0.000000
v 0.100000 -0.400000 0.100000
v 2.800000 -0.200000 0.600000
v 2.800000 -0.200000 0.100000
v 2.800000 -0.400000 0.100000
v 2.800000 -0.400000 0.600000
v 0.200000 -0.200000 -0.000000
v 2.800000 -0.200000 -0.000000
v 2.800000 -0.400000 -0.000000
v 0.200000 -0.400000 -0.000000
v 2.900000 -0.200000 -0.000000
v 2.900000 -0.200000 0.100000
v 2.900000 -0.200000 0.600000
v 0.100000 -0.200000 0.600000
v 0.100000 -0.600000 -0.000000
v 0.100000 -0.600000 0.100000
v 0.200000 -0.600000 0.100000
v 2.800000 -0.600000 0.100000
v 2.900000 -0.400000 0.600000
v 2.900000 -0.400000 0.100000
v 0.100000 -0.400000 0.600000
v 2.900000 -0.400000 -0.000000
v 0.200000 -0.600000 -0.000000
v 2.900000 -0.600000 0.100000
v 2.800000 -0.600000 -0.000000
v 2.900000 -0.600000 -0.000000
vt 1.000000 1.000000
vt 1.000000 1.000000
vt 1.000000 1.000000
vt 1.000000 1.000000
vt 0.000000 1.000000
vt 0.000000 1.000000
vt 0.000000 1.000000
vt 0.000000 1.000000
vt 0.000000 0.000000
vt 1.000000 0.000000
vt 0.000000 0.000000
vt 1.000000 0.000000
vt 1.000000 1.000000
vt 1.000000 0.000000
vt 1.000000 0.000000
vt 1.000000 1.000000
vt 1.000000 1.000000
vt 1.000000 1.000000
vt 1.000000 1.000000
vt 1.000000 1.000000
vt 0.000000 0.000000
vt 0.000000 1.000000
vt 0.000000 1.000000
vt 0.000000 0.000000
vt 1.000000 1.000000
vt 0.000000 1.000000
vt 0.000000 1.000000
vt 1.000000 1.000000
vt 0.000000 1.000000
vt 0.000000 1.000000
vt 0.000000 0.000000
vt 1.000000 0.000000
vt 1.000000 1.000000
vt 1.000000 1.000000
vt 1.000000 1.000000
vt 0.000000 1.000000
vt 0.000000 0.000000
vt 0.000000 1.000000
vt 1.000000 0.000000
vt 0.000000 1.000000
vt 1.000000 1.000000
vt 0.000000 1.000000
vt 0.000000 1.000000
vt 0.000000 1.000000
vn 0.0000 1.0000 0.0000
vn 1.0000 0.0000 0.0000
vn -1.0000 -0.0000 0.0000
vn 0.0000 -1.0000 -0.0000
vn 0.0000 0.0000 -1.0000
vn 0.0000 -0.0000 1.0000
usemtl None.009
s 1
f 1/1/1 2/2/1 3/3/1 4/4/1
f 5/5/1 6/6/1 7/7/1 8/8/1
f 8/8/1 7/7/1 2/2/1 1/1/1
f 9/9/1 8/8/1 1/1/1 10/10/1
f 11/11/1 5/5/1 8/8/1 9/9/1
f 10/10/1 1/1/1 4/4/1 12/12/1
f 13/13/2 14/14/2 15/15/2 16/16/2
f 17/17/3 18/18/3 19/19/3 20/20/3
f 21/21/3 22/22/3 23/23/3 24/24/3
f 21/21/4 14/14/4 13/13/4 22/22/4
f 25/25/5 26/26/5 27/27/5 28/28/5
f 18/18/5 25/25/5 28/28/5 19/19/5
f 3/3/5 2/2/5 25/25/5 18/18/5
f 2/2/5 7/7/5 26/26/5 25/25/5
f 4/4/3 3/3/3 18/18/3 17/17/3
f 7/7/5 6/6/5 29/29/5 26/26/5
f 6/6/2 5/5/2 30/30/2 29/29/2
f 5/5/2 11/11/2 31/31/2 30/30/2
f 9/9/6 10/10/6 14/14/6 21/21/6
f 11/11/6 9/9/6 21/21/6 31/31/6
f 12/12/3 4/4/3 17/17/3 32/32/3
f 10/10/6 12/12/6 32/32/6 14/14/6
f 20/20/3 19/19/3 33/33/3 34/34/3
f 23/23/6 16/16/6 35/35/6 36/36/6
f 16/16/6 20/20/6 34/34/6 35/35/6
f 37/37/4 24/24/4 23/23/4 38/38/4
f 15/15/4 39/39/4 20/20/4 16/16/4
f 26/26/5 29/29/5 40/40/5 27/27/5
f 29/29/2 30/30/2 38/38/2 40/40/2
f 30/30/2 31/31/2 37/37/2 38/38/2
f 22/22/6 13/13/6 16/16/6 23/23/6
f 31/31/6 21/21/6 24/24/6 37/37/6
f 32/32/3 17/17/3 20/20/3 39/39/3
f 14/14/6 32/32/6 39/39/6 15/15/6
f 35/35/4 34/34/4 33/33/4 41/41/4
f 42/42/4 36/36/4 43/43/4 44/44/4
f 36/36/4 35/35/4 41/41/4 43/43/4
f 40/40/2 38/38/2 42/42/2 44/44/2
f 19/19/5 28/28/5 41/41/5 33/33/5
f 28/28/5 27/27/5 43/43/5 41/41/5
f 38/38/6 23/23/6 36/36/6 42/42/6
f 27/27/5 40/40/5 44/44/5 43/43/5
