# Blender v2.80 (sub 74) OBJ File: 'Models.blend'
# www.blender.org
mtllib table12.mtl
o Cube
v 95.000008 -27.500000 45.000000
v 95.000008 -27.500000 5.000000
v 5.000000 -27.500000 45.000000
v 5.000000 -27.500000 5.000000
v 27.500000 -22.500000 27.500000
v 27.500000 -22.500000 22.500000
v 22.500000 -22.500000 22.500000
v 22.500000 -22.500000 27.500000
v 5.000000 -22.500000 45.000000
v 95.000008 -22.500000 45.000000
v 5.000000 -22.500000 5.000000
v 95.000008 -22.500000 5.000000
v 22.500000 0.000000 27.500000
v 27.500000 0.000000 27.500000
v 22.500000 0.000000 22.500000
v 27.500000 0.000000 22.500000
v 77.500000 -22.500000 27.500000
v 77.500000 -22.500000 22.500000
v 72.500000 -22.500000 22.500000
v 72.500000 -22.500000 27.500000
v 72.500000 0.000000 27.500000
v 77.500000 0.000000 27.500000
v 72.500000 0.000000 22.500000
v 77.500000 0.000000 22.500000
vt 0.625000 0.000000
vt 0.625000 0.000000
vt 0.625000 0.250000
vt 0.625000 0.250000
vt 0.625000 0.500000
vt 0.625000 0.500000
vt 0.625000 0.750000
vt 0.625000 0.750000
vt 0.625000 1.000000
vt 0.625000 1.000000
vt 0.875000 0.500000
vt 0.875000 0.750000
vt 0.625000 0.173862
vt 0.625000 0.276138
vt 0.625000 0.276138
vt 0.625000 0.173862
vt 0.625000 0.576138
vt 0.625000 0.473862
vt 0.625000 0.276138
vt 0.625000 0.173862
vt 0.625000 0.576138
vt 0.625000 0.473862
vt 0.625000 0.276138
vt 0.625000 0.173862
vt 0.625000 0.576138
vt 0.625000 0.473862
vt 0.625000 0.473862
vt 0.625000 0.576138
vn 1.0000 0.0000 0.0000
vn 0.0000 0.0000 -1.0000
vn -1.0000 0.0000 0.0000
vn 0.0000 0.0000 1.0000
vn 0.0000 -1.0000 0.0000
vn 0.0000 1.0000 0.0000
usemtl None
s off
f 10/1/1 1/2/1 2/3/1 12/4/1
f 12/4/2 2/3/2 4/5/2 11/6/2
f 11/6/3 4/5/3 3/7/3 9/8/3
f 9/8/4 3/7/4 1/9/4 10/10/4
f 4/5/5 2/11/5 1/12/5 3/7/5
f 5/13/1 6/14/1 16/15/1 14/16/1
f 8/17/6 7/18/6 11/6/6 9/8/6
f 12/4/6 18/19/6 17/20/6 10/1/6
f 13/21/6 14/16/6 16/15/6 15/22/6
f 7/18/3 8/17/3 13/21/3 15/22/3
f 6/14/2 7/18/2 15/22/2 16/15/2
f 8/17/4 5/13/4 14/16/4 13/21/4
f 17/20/1 18/19/1 24/23/1 22/24/1
f 21/25/6 22/24/6 24/23/6 23/26/6
f 19/27/3 20/28/3 21/25/3 23/26/3
f 18/19/2 19/27/2 23/26/2 24/23/2
f 20/28/4 17/20/4 22/24/4 21/25/4
f 5/13/6 20/28/6 19/27/6 6/14/6
f 11/6/6 19/27/6 18/19/6 12/4/6
f 6/14/6 19/27/6 11/6/6 7/18/6
f 20/28/6 5/13/6 10/1/6 17/20/6
f 10/1/6 5/13/6 8/17/6 9/8/6
