# Blender v2.80 (sub 74) OBJ File: 'Models.blend'
# www.blender.org
mtllib table33.mtl
o Cube
v 145.000000 -27.500000 145.000000
v 145.000000 -27.500000 5.000000
v 5.000000 -27.500000 145.000000
v 5.000000 -27.500000 5.000000
v 27.500000 -22.500000 27.500000
v 27.500000 -22.500000 22.500000
v 22.500000 -22.500000 22.500000
v 22.500000 -22.500000 27.500000
v 5.000000 -22.500000 145.000000
v 145.000000 -22.500000 145.000000
v 5.000000 -22.500000 5.000000
v 145.000000 -22.500000 5.000000
v 22.500000 0.000000 27.500000
v 27.500000 0.000000 27.500000
v 22.500000 0.000000 22.500000
v 27.500000 0.000000 22.500000
v 127.500000 -22.500000 27.500000
v 127.500000 -22.500000 22.500000
v 122.500000 -22.500000 22.500000
v 122.500000 -22.500000 27.500000
v 122.500000 0.000000 27.500000
v 127.500000 0.000000 27.500000
v 122.500000 0.000000 22.500000
v 127.500000 0.000000 22.500000
v 27.500000 -22.500000 127.500000
v 27.500000 -22.500000 122.500000
v 22.500000 -22.500000 122.500000
v 22.500000 -22.500000 127.500000
v 22.500000 0.000000 127.500000
v 27.500000 0.000000 127.500000
v 22.500000 0.000000 122.500000
v 27.500000 0.000000 122.500000
v 127.500000 -22.500000 127.500000
v 127.500000 -22.500000 122.500000
v 122.500000 -22.500000 122.500000
v 122.500000 -22.500000 127.500000
v 122.500000 0.000000 127.500000
v 127.500000 0.000000 127.500000
v 122.500000 0.000000 122.500000
v 127.500000 0.000000 122.500000
vt 0.625000 0.000000
vt 0.625000 0.000000
vt 0.625000 0.250000
vt 0.625000 0.250000
vt 0.625000 0.500000
vt 0.625000 0.500000
vt 0.625000 0.750000
vt 0.625000 0.750000
vt 0.625000 1.000000
vt 0.625000 1.000000
vt 0.875000 0.500000
vt 0.875000 0.750000
vt 0.625000 0.173862
vt 0.625000 0.276138
vt 0.625000 0.276138
vt 0.625000 0.173862
vt 0.625000 0.576138
vt 0.625000 0.473862
vt 0.625000 0.276138
vt 0.625000 0.173862
vt 0.625000 0.576138
vt 0.625000 0.473862
vt 0.625000 0.473862
vt 0.625000 0.276138
vt 0.625000 0.576138
vt 0.625000 0.473862
vt 0.625000 0.276138
vt 0.625000 0.173862
vt 0.625000 0.576138
vt 0.625000 0.473862
vt 0.625000 0.173862
vt 0.625000 0.276138
vt 0.625000 0.276138
vt 0.625000 0.173862
vt 0.625000 0.576138
vt 0.625000 0.473862
vt 0.625000 0.473862
vt 0.625000 0.576138
vt 0.625000 0.173862
vt 0.625000 0.276138
vt 0.625000 0.173862
vt 0.625000 0.576138
vt 0.625000 0.473862
vt 0.625000 0.576138
vn 1.0000 0.0000 0.0000
vn 0.0000 0.0000 -1.0000
vn -1.0000 0.0000 0.0000
vn 0.0000 0.0000 1.0000
vn 0.0000 -1.0000 0.0000
vn 0.0000 1.0000 0.0000
usemtl None
s off
f 10/1/1 1/2/1 2/3/1 12/4/1
f 12/4/2 2/3/2 4/5/2 11/6/2
f 11/6/3 4/5/3 3/7/3 9/8/3
f 9/8/4 3/7/4 1/9/4 10/10/4
f 4/5/5 2/11/5 1/12/5 3/7/5
f 5/13/1 6/14/1 16/15/1 14/16/1
f 8/17/6 7/18/6 11/6/6 9/8/6
f 12/4/6 18/19/6 17/20/6 10/1/6
f 13/21/6 14/16/6 16/15/6 15/22/6
f 7/18/3 8/17/3 13/21/3 15/22/3
f 6/14/2 7/18/2 15/22/2 16/15/2
f 8/17/4 5/13/4 14/16/4 13/21/4
f 35/23/6 34/24/6 17/20/6 20/25/6
f 11/6/6 19/26/6 18/19/6 12/4/6
f 17/20/1 18/19/1 24/27/1 22/28/1
f 21/29/6 22/28/6 24/27/6 23/30/6
f 19/26/3 20/25/3 21/29/3 23/30/3
f 18/19/2 19/26/2 23/30/2 24/27/2
f 20/25/4 17/20/4 22/28/4 21/29/4
f 25/31/1 26/32/1 32/33/1 30/34/1
f 29/35/6 30/34/6 32/33/6 31/36/6
f 27/37/3 28/38/3 29/35/3 31/36/3
f 26/32/2 27/37/2 31/36/2 32/33/2
f 28/38/4 25/31/4 30/34/4 29/35/4
f 33/39/1 34/24/1 40/40/1 38/41/1
f 37/42/6 38/41/6 40/40/6 39/43/6
f 35/23/3 36/44/3 37/42/3 39/43/3
f 34/24/2 35/23/2 39/43/2 40/40/2
f 36/44/4 33/39/4 38/41/4 37/42/4
f 26/32/6 25/31/6 36/44/6 35/23/6
f 5/13/6 8/17/6 27/37/6 26/32/6
f 5/13/6 20/25/6 19/26/6 6/14/6
f 35/23/6 20/25/6 5/13/6 26/32/6
f 6/14/6 19/26/6 11/6/6 7/18/6
f 9/8/6 28/38/6 27/37/6 8/17/6
f 17/20/6 34/24/6 33/39/6 10/1/6
f 10/10/6 25/31/6 28/38/6 9/8/6
f 36/44/6 25/31/6 10/10/6 33/39/6
