# Blender v2.81 (sub 16) OBJ File: ''
# www.blender.org
mtllib bed_double.mtl
o Plane
v 0.400000 0.000000 -1.900000
v 0.300000 0.000000 -1.900000
v 0.300000 0.000000 -2.000000
v 0.400000 0.000000 -2.000000
v 0.400000 0.000000 -0.000000
v 0.300000 0.000000 -0.000000
v 0.300000 0.000000 -0.200000
v 0.400000 0.000000 -0.200000
v 1.600000 0.000000 -0.000000
v 1.600000 0.000000 -0.200000
v 1.600000 0.000000 -1.900000
v 1.600000 0.000000 -2.000000
v 1.700000 0.000000 -1.900000
v 1.700000 0.000000 -2.000000
v 1.700000 0.000000 -0.000000
v 1.700000 0.000000 -0.200000
v 0.400000 0.400000 -1.900000
v 0.400000 0.400000 -2.000000
v 0.300000 0.400000 -2.000000
v 0.300000 0.400000 -1.900000
v 0.400000 0.400000 -0.200000
v 0.300000 0.400000 -0.200000
v 0.300000 0.425000 -0.200000
v 0.400000 0.425000 -0.200000
v 0.400000 0.400000 -0.000000
v 1.600000 0.400000 -0.000000
v 1.600000 0.425000 -0.000000
v 0.400000 0.425000 -0.000000
v 1.600000 0.400000 -1.900000
v 1.600000 0.400000 -2.000000
v 1.700000 0.400000 -1.900000
v 1.700000 0.400000 -2.000000
v 0.400000 0.425000 -1.900000
v 1.600000 0.425000 -1.900000
v 1.700000 0.400000 -0.200000
v 1.600000 0.400000 -0.200000
v 1.600000 0.425000 -0.200000
v 0.300000 0.400000 -0.000000
v 1.700000 0.400000 -0.000000
v 1.700000 0.425000 -0.000000
v 1.700000 0.800000 -0.000000
v 1.600000 0.800000 -0.000000
v 1.700000 0.425000 -0.200000
v 1.700000 0.800000 -0.200000
v 0.300000 0.425000 -0.000000
v 0.400000 0.800000 -0.000000
v 0.300000 0.800000 -0.000000
v 0.400000 0.800000 -0.200000
v 0.300000 0.800000 -0.200000
v 1.600000 0.800000 -0.200000
vt 1.000000 1.000000
vt 1.000000 1.000000
vt 1.000000 1.000000
vt 1.000000 1.000000
vt 0.000000 1.000000
vt 0.000000 1.000000
vt 0.000000 1.000000
vt 0.000000 1.000000
vt 0.000000 0.000000
vt 0.000000 0.000000
vt 1.000000 0.000000
vt 1.000000 0.000000
vt 1.000000 0.000000
vt 1.000000 0.000000
vt 0.000000 0.000000
vt 0.000000 0.000000
vt 1.000000 1.000000
vt 1.000000 1.000000
vt 1.000000 1.000000
vt 1.000000 1.000000
vt 0.000000 1.000000
vt 0.000000 1.000000
vt 0.000000 1.000000
vt 0.000000 1.000000
vt 0.000000 1.000000
vt 0.000000 0.000000
vt 0.000000 0.000000
vt 0.000000 1.000000
vt 1.000000 0.000000
vt 1.000000 0.000000
vt 1.000000 0.000000
vt 1.000000 0.000000
vt 1.000000 1.000000
vt 1.000000 0.000000
vt 0.000000 0.000000
vt 0.000000 0.000000
vt 0.000000 0.000000
vt 0.000000 1.000000
vt 0.000000 0.000000
vt 0.000000 0.000000
vt 0.000000 0.000000
vt 0.000000 0.000000
vt 0.000000 0.000000
vt 0.000000 0.000000
vt 0.000000 1.000000
vt 0.000000 1.000000
vt 0.000000 1.000000
vt 0.000000 1.000000
vt 0.000000 1.000000
vt 0.000000 0.000000
vn -0.0000 -1.0000 0.0000
vn 0.0000 1.0000 0.0000
vn 0.0000 0.0000 -1.0000
vn -0.0000 0.0000 1.0000
vn 1.0000 0.0000 0.0000
vn -1.0000 0.0000 0.0000
usemtl None
s 1
f 1/1/1 2/2/1 3/3/1 4/4/1
f 5/5/1 6/6/1 7/7/1 8/8/1
f 9/9/1 5/5/1 8/8/1 10/10/1
f 11/11/1 1/1/1 4/4/1 12/12/1
f 13/13/1 11/11/1 12/12/1 14/14/1
f 15/15/1 9/9/1 10/10/1 16/16/1
f 16/16/1 10/10/1 11/11/1 13/13/1
f 10/10/1 8/8/1 1/1/1 11/11/1
f 8/8/1 7/7/1 2/2/1 1/1/1
f 17/17/2 18/18/2 19/19/2 20/20/2
f 21/21/3 22/22/3 23/23/3 24/24/3
f 25/25/4 26/26/4 27/27/4 28/28/4
f 29/29/2 30/30/2 18/18/2 17/17/2
f 31/31/2 32/32/2 30/30/2 29/29/2
f 29/29/3 17/17/3 33/33/3 34/34/3
f 35/35/2 31/31/2 29/29/2 36/36/2
f 36/36/5 29/29/5 34/34/5 37/37/5
f 21/21/2 17/17/2 20/20/2 22/22/2
f 12/12/3 4/4/3 18/18/3 30/30/3
f 2/2/6 7/7/6 22/22/6 20/20/6
f 5/5/4 9/9/4 26/26/4 25/25/4
f 4/4/3 3/3/3 19/19/3 18/18/3
f 14/14/3 12/12/3 30/30/3 32/32/3
f 7/7/6 6/6/6 38/38/6 22/22/6
f 16/16/5 13/13/5 31/31/5 35/35/5
f 9/9/4 15/15/4 39/39/4 26/26/4
f 6/6/4 5/5/4 25/25/4 38/38/4
f 15/15/5 16/16/5 35/35/5 39/39/5
f 3/3/6 2/2/6 20/20/6 19/19/6
f 13/13/5 14/14/5 32/32/5 31/31/5
f 27/27/4 40/40/4 41/41/4 42/42/4
f 40/40/5 43/43/5 44/44/5 41/41/5
f 45/45/4 28/28/4 46/46/4 47/47/4
f 37/37/2 34/34/2 33/33/2 24/24/2
f 22/22/6 38/38/6 45/45/6 23/23/6
f 26/26/4 39/39/4 40/40/4 27/27/4
f 38/38/4 25/25/4 28/28/4 45/45/4
f 35/35/3 36/36/3 37/37/3 43/43/3
f 39/39/5 35/35/5 43/43/5 40/40/5
f 17/17/6 21/21/6 24/24/6 33/33/6
f 46/46/2 48/48/2 49/49/2 47/47/2
f 42/42/2 50/50/2 48/48/2 46/46/2
f 41/41/2 44/44/2 50/50/2 42/42/2
f 43/43/3 37/37/3 50/50/3 44/44/3
f 37/37/3 24/24/3 48/48/3 50/50/3
f 24/24/3 23/23/3 49/49/3 48/48/3
f 23/23/6 45/45/6 47/47/6 49/49/6
f 28/28/4 27/27/4 42/42/4 46/46/4
