# Blender v2.81 (sub 16) OBJ File: ''
# www.blender.org
mtllib cabinet_small.mtl
o Cube
v 1.000000 0.060000 -0.400000
v 1.000000 0.500000 -0.400000
v 1.000000 0.500000 0.000000
v 1.000000 0.060000 0.000000
v 0.000000 0.500000 0.000000
v 0.000000 0.060000 0.000000
v 0.000000 0.500000 -0.400000
v 0.000000 0.060000 -0.400000
v 0.940000 0.120000 -0.400000
v 0.060000 0.120000 -0.400000
v 0.060000 0.120000 -0.060000
v 0.940000 0.120000 -0.060000
v 0.940000 0.440000 -0.400000
v 0.060000 0.440000 -0.400000
v 0.060000 0.440000 -0.060000
v 0.940000 0.440000 -0.060000
vt 0.375000 0.000000
vt 0.625000 0.000000
vt 0.625000 0.250000
vt 0.375000 0.250000
vt 0.625000 0.500000
vt 0.375000 0.500000
vt 0.625000 0.750000
vt 0.375000 0.750000
vt 0.390000 0.985000
vt 0.390000 0.765000
vt 0.390000 0.765000
vt 0.390000 0.985000
vt 0.125000 0.500000
vt 0.125000 0.750000
vt 0.875000 0.500000
vt 0.875000 0.750000
vt 0.610000 0.985000
vt 0.625000 1.000000
vt 0.375000 1.000000
vt 0.610000 0.765000
vt 0.610000 0.765000
vt 0.610000 0.985000
vn 1.0000 -0.0000 0.0000
vn 0.0000 -0.0000 1.0000
vn -1.0000 0.0000 0.0000
vn 0.0000 1.0000 0.0000
vn 0.0000 -1.0000 -0.0000
vn 0.0000 0.0000 -1.0000
usemtl None
s 1
f 1/1/1 2/2/1 3/3/1 4/4/1
f 4/4/2 3/3/2 5/5/2 6/6/2
f 6/6/3 5/5/3 7/7/3 8/8/3
f 9/9/4 10/10/4 11/11/4 12/12/4
f 4/13/5 6/6/5 8/8/5 1/14/5
f 5/5/4 3/15/4 2/16/4 7/7/4
f 9/9/6 13/17/6 2/18/6 1/19/6
f 14/20/6 10/10/6 8/8/6 7/7/6
f 10/10/6 9/9/6 1/19/6 8/8/6
f 13/17/6 14/20/6 7/7/6 2/18/6
f 11/11/6 15/21/6 16/22/6 12/12/6
f 13/17/3 9/9/3 12/12/3 16/22/3
f 14/20/5 13/17/5 16/22/5 15/21/5
f 10/10/1 14/20/1 15/21/1 11/11/1
o Cube.001
v 0.100000 0.000000 -0.100000
v 0.100000 0.060000 -0.100000
v 0.100000 0.060000 -0.040000
v 0.100000 0.000000 -0.040000
v 0.040000 0.060000 -0.040000
v 0.040000 0.000000 -0.040000
v 0.040000 0.060000 -0.100000
v 0.040000 0.000000 -0.100000
v 0.900000 0.000000 -0.100000
v 0.900000 0.000000 -0.040000
v 0.900000 0.060000 -0.040000
v 0.900000 0.060000 -0.100000
v 0.960000 0.000000 -0.040000
v 0.960000 0.060000 -0.040000
v 0.960000 0.000000 -0.100000
v 0.960000 0.060000 -0.100000
v 0.100000 0.000000 -0.300000
v 0.100000 0.000000 -0.360000
v 0.100000 0.060000 -0.360000
v 0.100000 0.060000 -0.300000
v 0.040000 0.000000 -0.360000
v 0.040000 0.060000 -0.360000
v 0.040000 0.000000 -0.300000
v 0.040000 0.060000 -0.300000
v 0.900000 0.000000 -0.300000
v 0.900000 0.060000 -0.300000
v 0.900000 0.060000 -0.360000
v 0.900000 0.000000 -0.360000
v 0.960000 0.060000 -0.360000
v 0.960000 0.000000 -0.360000
v 0.960000 0.060000 -0.300000
v 0.960000 0.000000 -0.300000
vt 0.375000 0.000000
vt 0.625000 0.000000
vt 0.625000 0.250000
vt 0.375000 0.250000
vt 0.625000 0.500000
vt 0.375000 0.500000
vt 0.625000 0.750000
vt 0.375000 0.750000
vt 0.625000 1.000000
vt 0.375000 1.000000
vt 0.125000 0.500000
vt 0.125000 0.750000
vt 0.375000 0.000000
vt 0.375000 0.250000
vt 0.625000 0.250000
vt 0.625000 0.000000
vt 0.375000 0.500000
vt 0.625000 0.500000
vt 0.375000 0.750000
vt 0.625000 0.750000
vt 0.375000 1.000000
vt 0.625000 1.000000
vt 0.125000 0.500000
vt 0.125000 0.750000
vt 0.375000 0.000000
vt 0.375000 0.250000
vt 0.625000 0.250000
vt 0.625000 0.000000
vt 0.375000 0.500000
vt 0.625000 0.500000
vt 0.375000 0.750000
vt 0.625000 0.750000
vt 0.375000 1.000000
vt 0.625000 1.000000
vt 0.125000 0.500000
vt 0.125000 0.750000
vt 0.375000 0.000000
vt 0.625000 0.000000
vt 0.625000 0.250000
vt 0.375000 0.250000
vt 0.625000 0.500000
vt 0.375000 0.500000
vt 0.625000 0.750000
vt 0.375000 0.750000
vt 0.625000 1.000000
vt 0.375000 1.000000
vt 0.125000 0.500000
vt 0.125000 0.750000
vn 1.0000 0.0000 0.0000
vn 0.0000 -0.0000 1.0000
vn -1.0000 -0.0000 0.0000
vn 0.0000 0.0000 -1.0000
vn 0.0000 -1.0000 -0.0000
usemtl None
s 1
f 17/23/7 18/24/7 19/25/7 20/26/7
f 20/26/8 19/25/8 21/27/8 22/28/8
f 22/28/9 21/27/9 23/29/9 24/30/9
f 24/30/10 23/29/10 18/31/10 17/32/10
f 20/33/11 22/28/11 24/30/11 17/34/11
f 25/35/9 26/36/9 27/37/9 28/38/9
f 26/36/8 29/39/8 30/40/8 27/37/8
f 29/39/7 31/41/7 32/42/7 30/40/7
f 31/41/10 25/43/10 28/44/10 32/42/10
f 26/45/11 25/46/11 31/41/11 29/39/11
f 33/47/7 34/48/7 35/49/7 36/50/7
f 34/48/10 37/51/10 38/52/10 35/49/10
f 37/51/9 39/53/9 40/54/9 38/52/9
f 39/53/8 33/55/8 36/56/8 40/54/8
f 34/57/11 33/58/11 39/53/11 37/51/11
f 41/59/9 42/60/9 43/61/9 44/62/9
f 44/62/10 43/61/10 45/63/10 46/64/10
f 46/64/7 45/63/7 47/65/7 48/66/7
f 48/66/8 47/65/8 42/67/8 41/68/8
f 44/69/11 46/64/11 48/66/11 41/70/11
o Cube.002
v 0.065000 0.125000 -0.390000
v 0.065000 0.435000 -0.390000
v 0.495000 0.435000 -0.390000
v 0.495000 0.125000 -0.390000
v 0.500000 0.120000 -0.370000
v 0.500000 0.440000 -0.370000
v 0.060000 0.440000 -0.370000
v 0.060000 0.120000 -0.370000
v 0.500000 0.440000 -0.385000
v 0.060000 0.440000 -0.385000
v 0.060000 0.120000 -0.385000
v 0.496913 0.436913 -0.389619
v 0.496913 0.123087 -0.389619
v 0.498536 0.438536 -0.388536
v 0.498536 0.121464 -0.388536
v 0.500000 0.439619 -0.386913
v 0.500000 0.120381 -0.386913
v 0.063087 0.123087 -0.389619
v 0.063087 0.436913 -0.389619
v 0.061464 0.121464 -0.388536
v 0.061464 0.438536 -0.388536
v 0.060381 0.120381 -0.386913
v 0.060381 0.439619 -0.386913
v 0.500000 0.120000 -0.385000
v 0.485000 0.320000 -0.405000
v 0.485000 0.330000 -0.405000
v 0.485000 0.330000 -0.403000
v 0.485000 0.320000 -0.403000
v 0.477000 0.320000 -0.403000
v 0.477000 0.330000 -0.403000
v 0.475000 0.330000 -0.403000
v 0.475000 0.320000 -0.403000
v 0.475000 0.330000 -0.405000
v 0.475000 0.320000 -0.405000
v 0.483000 0.320000 -0.405000
v 0.483000 0.330000 -0.405000
v 0.477000 0.230000 -0.403000
v 0.475000 0.230000 -0.403000
v 0.475000 0.230000 -0.405000
v 0.477000 0.230000 -0.405000
v 0.483000 0.330000 -0.403000
v 0.483000 0.240000 -0.405000
v 0.485000 0.240000 -0.405000
v 0.475000 0.240000 -0.403000
v 0.475000 0.240000 -0.405000
v 0.477000 0.240000 -0.403000
v 0.485000 0.240000 -0.403000
v 0.485000 0.230000 -0.405000
v 0.485000 0.230000 -0.403000
v 0.483000 0.230000 -0.405000
v 0.477000 0.240000 -0.405000
v 0.483000 0.240000 -0.403000
v 0.483000 0.230000 -0.403000
v 0.483000 0.320000 -0.403000
v 0.477000 0.320000 -0.405000
v 0.477000 0.330000 -0.405000
v 0.483000 0.320000 -0.385000
v 0.483000 0.240000 -0.385000
v 0.477000 0.320000 -0.385000
v 0.477000 0.240000 -0.385000
v 0.935000 0.125000 -0.390000
v 0.505000 0.125000 -0.390000
v 0.505000 0.435000 -0.390000
v 0.935000 0.435000 -0.390000
v 0.940000 0.120000 -0.370000
v 0.940000 0.440000 -0.370000
v 0.940000 0.440000 -0.385000
v 0.940000 0.120000 -0.385000
v 0.503087 0.123087 -0.389619
v 0.503087 0.436913 -0.389619
v 0.501464 0.121464 -0.388536
v 0.501464 0.438536 -0.388536
v 0.936913 0.436913 -0.389619
v 0.936913 0.123087 -0.389619
v 0.938536 0.438536 -0.388536
v 0.938536 0.121464 -0.388536
v 0.939619 0.439619 -0.386913
v 0.939619 0.120381 -0.386913
v 0.515000 0.320000 -0.405000
v 0.515000 0.320000 -0.403000
v 0.515000 0.330000 -0.403000
v 0.515000 0.330000 -0.405000
v 0.523000 0.320000 -0.403000
v 0.525000 0.320000 -0.403000
v 0.525000 0.330000 -0.403000
v 0.523000 0.330000 -0.403000
v 0.525000 0.320000 -0.405000
v 0.525000 0.330000 -0.405000
v 0.517000 0.320000 -0.405000
v 0.517000 0.330000 -0.405000
v 0.523000 0.230000 -0.403000
v 0.523000 0.230000 -0.405000
v 0.525000 0.230000 -0.405000
v 0.525000 0.230000 -0.403000
v 0.517000 0.330000 -0.403000
v 0.517000 0.240000 -0.405000
v 0.515000 0.240000 -0.405000
v 0.525000 0.240000 -0.403000
v 0.525000 0.240000 -0.405000
v 0.523000 0.240000 -0.403000
v 0.515000 0.240000 -0.403000
v 0.515000 0.230000 -0.405000
v 0.515000 0.230000 -0.403000
v 0.517000 0.230000 -0.405000
v 0.523000 0.240000 -0.405000
v 0.517000 0.230000 -0.403000
v 0.517000 0.240000 -0.403000
v 0.517000 0.320000 -0.403000
v 0.523000 0.320000 -0.405000
v 0.523000 0.330000 -0.405000
v 0.517000 0.240000 -0.385000
v 0.517000 0.320000 -0.385000
v 0.523000 0.240000 -0.385000
v 0.523000 0.320000 -0.385000
vt 0.376524 0.752841
vt 0.623476 0.752841
vt 0.623476 0.997159
vt 0.376524 0.997159
vt 0.375000 0.250000
vt 0.625000 0.250000
vt 0.625000 0.500000
vt 0.375000 0.500000
vt 0.875000 0.500000
vt 0.875000 0.725000
vt 0.625000 0.725000
vt 0.375000 0.725000
vt 0.624059 0.998246
vt 0.375941 0.998246
vt 0.624554 1.000000
vt 0.375446 1.000000
vt 0.375446 0.000000
vt 0.624553 0.000000
vt 0.624884 0.015433
vt 0.375116 0.015433
vt 0.375941 0.751754
vt 0.624059 0.751754
vt 0.375446 0.750000
vt 0.624553 0.750000
vt 0.375116 0.734567
vt 0.624884 0.734567
vt 0.125000 0.725000
vt 0.374784 0.734567
vt 0.125216 0.734567
vt 0.374168 0.750000
vt 0.125832 0.750000
vt 0.375000 0.999168
vt 0.375000 0.750832
vt 0.874784 0.734567
vt 0.625216 0.734567
vt 0.874168 0.750000
vt 0.625832 0.750000
vt 0.625000 0.750832
vt 0.625000 0.999168
vt 0.125000 0.500000
vt 0.625000 0.000000
vt 0.625000 0.000000
vt 0.625000 0.250000
vt 0.625000 0.250000
vt 0.625000 0.500000
vt 0.625000 0.500000
vt 0.625000 0.500000
vt 0.625000 0.500000
vt 0.625000 0.750000
vt 0.625000 0.750000
vt 0.625000 1.000000
vt 0.625000 1.000000
vt 0.625000 1.000000
vt 0.625000 1.000000
vt 0.375000 0.500000
vt 0.375000 0.500000
vt 0.375000 0.750000
vt 0.375000 0.750000
vt 0.875000 0.500000
vt 0.875000 0.500000
vt 0.875000 0.750000
vt 0.875000 0.750000
vt 0.375000 1.000000
vt 0.375000 1.000000
vt 0.375000 0.500000
vt 0.375000 0.750000
vt 0.375000 0.500000
vt 0.375000 0.000000
vt 0.375000 0.250000
vt 0.375000 0.000000
vt 0.375000 0.250000
vt 0.375000 1.000000
vt 0.375000 1.000000
vt 0.375000 0.750000
vt 0.375000 0.250000
vt 0.375000 0.250000
vt 0.625000 0.250000
vt 0.625000 0.750000
vt 0.625000 0.750000
vt 0.125000 0.500000
vt 0.125000 0.500000
vt 0.125000 0.750000
vt 0.125000 0.750000
vt 0.625000 0.250000
vt 0.625000 0.250000
vt 0.375000 0.250000
vt 0.625000 0.500000
vt 0.375000 0.500000
vt 0.376524 0.752841
vt 0.376524 0.997159
vt 0.623476 0.997159
vt 0.623476 0.752841
vt 0.375000 0.500000
vt 0.625000 0.500000
vt 0.625000 0.725000
vt 0.375000 0.025000
vt 0.625000 0.025000
vt 0.375000 0.725000
vt 0.375941 0.998246
vt 0.624059 0.998246
vt 0.375446 1.000000
vt 0.624554 1.000000
vt 0.375446 0.000000
vt 0.624553 0.000000
vt 0.624059 0.751754
vt 0.375941 0.751754
vt 0.624553 0.750000
vt 0.375446 0.750000
vt 0.624884 0.734567
vt 0.375116 0.734567
vt 0.374784 0.734567
vt 0.125832 0.750000
vt 0.374168 0.750000
vt 0.375000 0.999168
vt 0.375000 0.750832
vt 0.625216 0.734567
vt 0.625832 0.750000
vt 0.874168 0.750000
vt 0.625000 0.750832
vt 0.625000 0.999168
vt 0.625000 0.000000
vt 0.625000 0.250000
vt 0.625000 0.250000
vt 0.625000 0.000000
vt 0.625000 0.500000
vt 0.625000 0.500000
vt 0.625000 0.500000
vt 0.625000 0.500000
vt 0.625000 0.750000
vt 0.625000 0.750000
vt 0.625000 1.000000
vt 0.625000 1.000000
vt 0.625000 1.000000
vt 0.625000 1.000000
vt 0.375000 0.500000
vt 0.375000 0.750000
vt 0.375000 0.750000
vt 0.375000 0.500000
vt 0.875000 0.500000
vt 0.875000 0.750000
vt 0.875000 0.750000
vt 0.875000 0.500000
vt 0.375000 1.000000
vt 0.375000 1.000000
vt 0.375000 0.500000
vt 0.375000 0.750000
vt 0.375000 0.500000
vt 0.375000 0.000000
vt 0.375000 0.250000
vt 0.375000 0.000000
vt 0.375000 0.250000
vt 0.375000 1.000000
vt 0.375000 1.000000
vt 0.375000 0.750000
vt 0.375000 0.250000
vt 0.375000 0.250000
vt 0.625000 0.250000
vt 0.625000 0.750000
vt 0.625000 0.750000
vt 0.125000 0.500000
vt 0.125000 0.750000
vt 0.125000 0.750000
vt 0.125000 0.500000
vt 0.625000 0.250000
vt 0.375000 0.250000
vt 0.625000 0.250000
vt 0.375000 0.500000
vt 0.625000 0.500000
vn 0.0000 0.0000 -1.0000
vn 0.0000 -0.0000 1.0000
vn 0.0000 1.0000 0.0000
vn -1.0000 -0.0000 0.0000
vn 0.1948 0.0000 -0.9808
vn 0.5555 0.0000 -0.8315
vn 0.7423 0.0000 -0.6700
vn -0.1950 0.0000 -0.9808
vn -0.5555 0.0000 -0.8315
vn -0.8315 0.0000 -0.5555
vn -0.9809 0.0000 -0.1948
vn -0.0000 -0.9808 -0.1950
vn -0.0000 -0.8315 -0.5555
vn 0.0000 -0.5554 -0.8316
vn -0.0000 -0.1950 -0.9808
vn -0.0000 0.9808 -0.1950
vn 0.0000 0.8315 -0.5555
vn -0.0000 0.5556 -0.8314
vn 0.0000 0.1953 -0.9807
vn 0.0000 -1.0000 0.0000
vn 1.0000 0.0000 0.0000
vn -0.1948 0.0000 -0.9808
vn -0.7422 0.0000 -0.6702
vn 0.1950 0.0000 -0.9808
vn 0.8316 0.0000 -0.5553
vn 0.9807 0.0000 -0.1953
vn 0.0000 -0.9807 -0.1953
vn 0.0000 -0.1949 -0.9808
vn 0.0000 0.5555 -0.8315
vn -0.0000 0.1950 -0.9808
usemtl None
s 1
f 49/71/12 50/72/12 51/73/12 52/74/12
f 53/75/13 54/76/13 55/77/13 56/78/13
f 55/77/14 54/79/14 57/80/14 58/81/14
f 56/78/15 55/77/15 58/81/15 59/82/15
f 52/74/16 51/73/16 60/83/16 61/84/16
f 61/84/17 60/83/17 62/85/17 63/86/17
f 63/87/18 62/88/18 64/89/18 65/90/18
f 50/72/19 49/71/19 66/91/19 67/92/19
f 67/92/20 66/91/20 68/93/20 69/94/20
f 69/94/21 68/93/21 70/95/21 71/96/21
f 71/96/22 70/95/22 59/82/22 58/81/22
f 72/97/23 59/82/23 70/98/23 65/99/23
f 65/99/24 70/98/24 68/100/24 63/101/24
f 63/102/25 68/103/25 66/91/25 61/84/25
f 61/84/26 66/91/26 49/71/26 52/74/26
f 58/81/27 57/80/27 64/104/27 71/105/27
f 71/105/28 64/104/28 62/106/28 69/107/28
f 69/108/29 62/109/29 60/83/29 67/92/29
f 67/92/30 60/83/30 51/73/30 50/72/30
f 53/110/31 56/78/31 59/82/31 72/97/31
f 73/111/32 74/112/32 75/113/32 76/114/32
f 77/115/13 78/116/13 79/117/13 80/118/13
f 80/118/15 79/117/15 81/119/15 82/120/15
f 83/121/12 84/122/12 74/123/12 73/124/12
f 85/125/31 86/126/31 87/127/31 88/128/31
f 89/129/14 75/130/14 74/131/14 84/132/14
f 90/133/12 83/121/12 73/124/12 91/134/12
f 92/135/15 80/118/15 82/120/15 93/136/15
f 94/137/13 77/115/13 80/118/13 92/135/13
f 91/138/32 73/111/32 76/114/32 95/139/32
f 96/140/32 91/138/32 95/139/32 97/141/32
f 85/125/13 94/137/13 92/135/13 86/126/13
f 86/126/15 92/135/15 93/136/15 87/127/15
f 98/142/12 90/133/12 91/134/12 96/143/12
f 88/128/12 99/144/12 90/133/12 98/142/12
f 97/141/13 95/139/13 100/145/13 101/146/13
f 95/139/13 76/114/13 102/147/13 100/145/13
f 99/144/12 103/148/12 83/121/12 90/133/12
f 78/116/14 89/129/14 84/132/14 104/149/14
f 97/150/31 101/151/31 98/152/31 96/153/31
f 103/148/12 104/149/12 84/122/12 83/121/12
f 76/114/13 75/113/13 89/154/13 102/147/13
f 82/120/12 81/119/12 104/149/12 103/148/12
f 79/117/14 78/116/14 104/149/14 81/119/14
f 93/136/12 82/120/12 103/148/12 99/144/12
f 87/127/12 93/136/12 99/144/12 88/128/12
f 101/146/13 100/145/13 94/137/13 85/125/13
f 100/145/32 102/147/32 105/155/32 106/156/32
f 101/151/31 85/125/31 88/128/31 98/152/31
f 102/147/13 89/154/13 78/116/13 77/115/13
f 106/156/13 105/155/13 107/157/13 108/158/13
f 94/137/31 100/145/31 106/156/31 108/158/31
f 102/147/14 77/115/14 107/157/14 105/155/14
f 77/115/15 94/137/15 108/158/15 107/157/15
f 109/159/12 110/160/12 111/161/12 112/162/12
f 53/75/13 113/163/13 114/164/13 54/76/13
f 114/164/14 115/165/14 57/80/14 54/79/14
f 72/166/15 53/75/15 54/76/15 57/167/15
f 113/163/32 116/168/32 115/165/32 114/164/32
f 110/160/33 117/169/33 118/170/33 111/161/33
f 117/169/20 119/171/20 120/172/20 118/170/20
f 119/173/34 65/90/34 64/89/34 120/174/34
f 65/90/15 72/166/15 57/167/15 64/89/15
f 112/162/35 121/175/35 122/176/35 109/159/35
f 121/175/17 123/177/17 124/178/17 122/176/17
f 123/177/36 125/179/36 126/180/36 124/178/36
f 125/179/37 115/165/37 116/168/37 126/180/37
f 72/97/38 65/99/38 126/181/38 116/168/38
f 65/99/24 119/182/24 124/183/24 126/181/24
f 119/184/25 117/169/25 122/176/25 124/185/25
f 117/169/39 110/160/39 109/159/39 122/176/39
f 115/165/27 125/186/27 64/104/27 57/80/27
f 125/186/28 123/187/28 120/188/28 64/104/28
f 123/189/40 121/175/40 118/170/40 120/190/40
f 121/175/41 112/162/41 111/161/41 118/170/41
f 53/110/31 72/97/31 116/168/31 113/163/31
f 127/191/15 128/192/15 129/193/15 130/194/15
f 131/195/13 132/196/13 133/197/13 134/198/13
f 132/196/32 135/199/32 136/200/32 133/197/32
f 137/201/12 127/202/12 130/203/12 138/204/12
f 139/205/31 140/206/31 141/207/31 142/208/31
f 143/209/14 138/210/14 130/211/14 129/212/14
f 144/213/12 145/214/12 127/202/12 137/201/12
f 146/215/32 147/216/32 135/199/32 132/196/32
f 148/217/13 146/215/13 132/196/13 131/195/13
f 145/218/15 149/219/15 128/192/15 127/191/15
f 150/220/15 151/221/15 149/219/15 145/218/15
f 139/205/13 142/208/13 146/215/13 148/217/13
f 142/208/32 141/207/32 147/216/32 146/215/32
f 152/222/12 150/223/12 145/214/12 144/213/12
f 140/206/12 152/222/12 144/213/12 153/224/12
f 151/221/13 154/225/13 155/226/13 149/219/13
f 149/219/13 155/226/13 156/227/13 128/192/13
f 153/224/12 144/213/12 137/201/12 157/228/12
f 134/198/14 158/229/14 138/210/14 143/209/14
f 151/230/31 150/231/31 152/232/31 154/233/31
f 157/228/12 137/201/12 138/204/12 158/229/12
f 128/192/13 156/227/13 143/234/13 129/193/13
f 135/199/12 157/228/12 158/229/12 136/200/12
f 133/197/14 136/200/14 158/229/14 134/198/14
f 147/216/12 153/224/12 157/228/12 135/199/12
f 141/207/12 140/206/12 153/224/12 147/216/12
f 154/225/13 139/205/13 148/217/13 155/226/13
f 155/226/15 159/235/15 160/236/15 156/227/15
f 154/233/31 152/232/31 140/206/31 139/205/31
f 156/227/13 131/195/13 134/198/13 143/234/13
f 159/235/13 161/237/13 162/238/13 160/236/13
f 148/217/31 161/237/31 159/235/31 155/226/31
f 156/227/14 160/236/14 162/238/14 131/195/14
f 131/195/32 162/238/32 161/237/32 148/217/32
