# Blender v2.80 (sub 74) OBJ File: ''
# www.blender.org
mtllib chair11.mtl
o Cube.001_Cube.002_Cube.001_Cube.003
v 0.700000 -0.350000 1.000000
v 0.800000 -0.400000 0.900000
v 0.800000 -0.350000 0.900000
v 0.700000 -0.400000 1.000000
v 0.728988 -0.400000 0.999790
v 0.757821 -0.400000 0.996795
v 0.783666 -0.400000 0.983666
v 0.796795 -0.400000 0.957821
v 0.799790 -0.400000 0.928988
v 0.799790 -0.350000 0.928988
v 0.796795 -0.350000 0.957821
v 0.783666 -0.350000 0.983666
v 0.757821 -0.350000 0.996795
v 0.728988 -0.350000 0.999790
v 0.300000 -0.350000 1.000000
v 0.200000 -0.400000 0.900000
v 0.200000 -0.350000 0.900000
v 0.300000 -0.400000 1.000000
v 0.271012 -0.400000 0.999790
v 0.242179 -0.400000 0.996795
v 0.216334 -0.400000 0.983666
v 0.203205 -0.400000 0.957821
v 0.200210 -0.400000 0.928988
v 0.200210 -0.350000 0.928988
v 0.203205 -0.350000 0.957821
v 0.216334 -0.350000 0.983666
v 0.242179 -0.350000 0.996795
v 0.271012 -0.350000 0.999790
v 0.800000 -0.350000 0.440000
v 0.800000 -0.400000 0.440000
v 0.800000 -0.400000 0.400000
v 0.800000 -0.350000 0.400000
v 0.240000 -0.350000 0.400000
v 0.240000 -0.400000 0.400000
v 0.200000 -0.400000 0.400000
v 0.200000 -0.350000 0.400000
v 0.240000 -0.350000 0.960000
v 0.760000 -0.400000 0.960000
v 0.700000 -0.400000 0.960000
v 0.760000 -0.350000 0.960000
v 0.760000 -0.400000 0.400000
v 0.760000 -0.350000 0.400000
v 0.300000 -0.350000 0.960000
v 0.300000 -0.350000 0.400000
v 0.300000 -0.400000 0.400000
v 0.240000 -0.350000 0.440000
v 0.300000 -0.350000 0.440000
v 0.760000 -0.350000 0.440000
v 0.300000 -0.400000 0.440000
v 0.240000 -0.400000 0.440000
v 0.240000 -1.100000 0.440000
v 0.300000 -1.100000 0.440000
v 0.240000 -1.100000 0.400000
v 0.200000 -0.350000 0.440000
v 0.200000 -0.400000 0.440000
v 0.800000 -0.350000 0.500000
v 0.800000 -0.400000 0.500000
v 0.300000 -0.000000 0.960000
v 0.240000 -0.000000 0.960000
v 0.240000 -0.400000 0.900000
v 0.760000 -0.350000 0.900000
v 0.700000 -0.400000 0.900000
v 0.760000 -0.400000 0.900000
v 0.240000 -0.350000 0.900000
v 0.300000 -0.400000 0.900000
v 0.300000 -0.400000 0.960000
v 0.700000 -0.350000 0.960000
v 0.760000 -0.000000 0.960000
v 0.700000 -0.000000 0.960000
v 0.700000 -0.400000 0.400000
v 0.700000 -1.100000 0.400000
v 0.300000 -1.100000 0.400000
v 0.700000 -0.350000 0.400000
v 0.700000 -0.350000 0.440000
v 0.760000 -1.100000 0.400000
v 0.700000 -0.350000 0.900000
v 0.300000 -0.350000 0.900000
v 0.300000 -0.350000 0.500000
v 0.700000 -0.350000 0.500000
v 0.300000 -0.400000 0.500000
v 0.240000 -0.400000 0.500000
v 0.760000 -0.350000 0.500000
v 0.760000 -0.000000 0.440000
v 0.760000 -0.000000 0.500000
v 0.700000 -0.400000 0.440000
v 0.700000 -0.400000 0.500000
v 0.200000 -0.400000 0.500000
v 0.200000 -0.350000 0.500000
v 0.240000 -0.350000 0.500000
v 0.760000 -0.400000 0.440000
v 0.760000 -0.400000 0.500000
v 0.240000 -0.000000 0.440000
v 0.300000 -0.000000 0.440000
v 0.300000 -0.000000 0.900000
v 0.240000 -0.000000 0.900000
v 0.760000 -0.000000 0.900000
v 0.700000 -0.000000 0.900000
v 0.700000 -0.000000 0.440000
v 0.700000 -0.000000 0.500000
v 0.240000 -0.000000 0.500000
v 0.300000 -0.000000 0.500000
v 0.760000 -1.100000 0.440000
v 0.700000 -1.100000 0.440000
v 0.240000 -0.400000 0.960000
v 0.760000 -1.100000 0.440000
v 0.800000 -1.060000 0.440000
v 0.780000 -1.094641 0.440000
v 0.794641 -1.080000 0.440000
v 0.800000 -1.060000 0.400000
v 0.760000 -1.100000 0.400000
v 0.794641 -1.080000 0.400000
v 0.780000 -1.094641 0.400000
v 0.240000 -1.100000 0.400000
v 0.200000 -1.060000 0.400000
v 0.220000 -1.094641 0.400000
v 0.205359 -1.080000 0.400000
v 0.200000 -1.060000 0.440000
v 0.240000 -1.100000 0.440000
v 0.205359 -1.080000 0.440000
v 0.220000 -1.094641 0.440000
vt 0.000000 0.000000
vt 0.000000 0.000000
vt 0.108704 0.217408
vt 0.181173 0.217408
vt 0.216829 0.433657
vt 0.361381 0.433657
vt 0.354583 0.709165
vt 0.590971 0.709165
vt 0.370993 0.741987
vt 0.618322 0.741987
vt 0.374738 0.749476
vt 0.624563 0.749476
vt 0.375000 0.750000
vt 0.625000 0.750000
vt 0.000000 0.000000
vt 0.000000 0.000000
vt 0.108704 0.217408
vt 0.181173 0.217408
vt 0.216829 0.433657
vt 0.361381 0.433657
vt 0.354583 0.709165
vt 0.590971 0.709165
vt 0.370993 0.741987
vt 0.618322 0.741987
vt 0.374738 0.749476
vt 0.624563 0.749476
vt 0.375000 0.750000
vt 0.625000 0.750000
vt 0.375000 0.250000
vt 0.625000 0.250000
vt 0.625000 0.250000
vt 0.375000 0.250000
vt 0.375000 0.500000
vt 0.625000 0.500000
vt 0.625000 0.500000
vt 0.375000 0.500000
vt 0.625000 0.250000
vt 0.375000 0.250000
vt 0.375000 0.500000
vt 0.625000 0.500000
vt 0.375000 0.500000
vt 0.375000 0.500000
vt 0.875000 0.500000
vt 0.875000 0.500000
vt 0.875000 0.500000
vt 0.875000 0.500000
vt 0.125000 0.500000
vt 0.125000 0.500000
vt 0.125000 0.500000
vt 0.125000 0.500000
vt 0.625000 0.500000
vt 0.625000 0.500000
vt 0.625000 0.500000
vt 0.625000 0.500000
vt 0.625000 0.500000
vt 0.625000 0.500000
vt 0.625000 0.500000
vt 0.375000 0.500000
vt 0.625000 0.500000
vt 0.375000 0.250000
vt 0.625000 0.250000
vt 0.375000 0.750000
vt 0.375000 0.750000
vt 0.375000 0.750000
vt 0.375000 0.750000
vt 0.875000 0.750000
vt 0.875000 0.750000
vt 0.875000 0.750000
vt 0.875000 0.750000
vt 0.625000 0.750000
vt 0.625000 0.750000
vt 0.125000 0.750000
vt 0.125000 0.750000
vt 0.125000 0.750000
vt 0.125000 0.750000
vt 0.625000 0.250000
vt 0.625000 0.250000
vt 0.625000 0.500000
vt 0.125000 0.500000
vt 0.125000 0.500000
vt 0.375000 0.250000
vt 0.375000 0.750000
vt 0.625000 0.750000
vt 0.625000 1.000000
vt 0.375000 1.000000
vt 0.875000 0.750000
vt 0.625000 0.250000
vt 0.125000 0.750000
vt 0.375000 0.750000
vt 0.125000 0.750000
vt 0.375000 0.500000
vt 0.125000 0.500000
vt 0.625000 0.500000
vt 0.625000 0.500000
vt 0.125000 0.500000
vt 0.125000 0.500000
vt 0.125000 0.500000
vt 0.875000 0.500000
vt 0.875000 0.500000
vt 0.625000 0.500000
vt 0.375000 0.500000
vt 0.375000 0.500000
vt 0.875000 0.500000
vt 0.875000 0.500000
vt 0.875000 0.500000
vt 0.875000 0.500000
vt 0.125000 0.500000
vt 0.375000 0.500000
vt 0.375000 0.500000
vt 0.375000 0.000000
vt 0.625000 0.000000
vt 0.625000 0.750000
vt 0.125000 0.750000
vt 0.375000 0.750000
vt 0.875000 0.750000
vt 0.125000 0.750000
vt 0.375000 0.750000
vt 0.375000 0.750000
vt 0.125000 0.750000
vt 0.125000 0.750000
vt 0.125000 0.500000
vt 0.125000 0.500000
vt 0.375000 0.500000
vt 0.375000 0.500000
vt 0.625000 0.500000
vt 0.625000 0.500000
vt 0.625000 0.500000
vt 0.875000 0.500000
vt 0.875000 0.500000
vt 0.625000 0.250000
vt 0.625000 0.250000
vt 0.625000 0.250000
vt 0.625000 0.250000
vt 0.625000 0.250000
vt 0.625000 0.500000
vt 0.625000 0.500000
vt 0.625000 0.500000
vt 0.000000 0.000000
vt 0.875000 0.500000
vt 0.875000 0.500000
vt 0.875000 0.500000
vt 0.875000 0.500000
vt 0.625000 0.250000
vt 0.875000 0.500000
vn -0.0072 0.0000 -1.0000
vn -0.1033 0.0000 -0.9946
vn -0.4529 0.0000 -0.8916
vn -0.8916 0.0000 -0.4529
vn -0.9946 0.0000 -0.1033
vn -1.0000 0.0000 -0.0072
vn -0.0072 0.0000 1.0000
vn -0.1033 0.0000 0.9946
vn -0.4529 0.0000 0.8916
vn -0.8916 0.0000 0.4529
vn -0.9946 0.0000 0.1033
vn -1.0000 0.0000 0.0072
vn 1.0000 0.0000 0.0000
vn 0.0000 0.0000 -1.0000
vn 0.0000 1.0000 0.0000
vn 0.0000 -0.0000 1.0000
vn 0.0000 0.0000 0.0000
vn -1.0000 0.0000 0.0000
vn 0.0000 -1.0000 0.0000
vn 0.2588 -0.9659 0.0000
vn 0.7071 -0.7071 0.0000
vn 0.9659 -0.2588 0.0000
vn -0.2588 -0.9659 0.0000
vn -0.7071 -0.7071 0.0000
vn -0.9659 -0.2588 0.0000
usemtl None.006
s off
f 4/1/1 1/2/1 14/3/1 5/4/1
f 5/4/2 14/3/2 13/5/2 6/6/2
f 6/6/3 13/5/3 12/7/3 7/8/3
f 7/8/4 12/7/4 11/9/4 8/10/4
f 8/10/5 11/9/5 10/11/5 9/12/5
f 9/12/6 10/11/6 3/13/6 2/14/6
f 18/15/7 15/16/7 28/17/7 19/18/7
f 19/18/8 28/17/8 27/19/8 20/20/8
f 20/20/9 27/19/9 26/21/9 21/22/9
f 21/22/10 26/21/10 25/23/10 22/24/10
f 22/24/11 25/23/11 24/25/11 23/26/11
f 23/26/12 24/25/12 17/27/12 16/28/12
f 29/29/13 30/30/13 31/31/13 32/32/13
f 33/33/14 34/34/14 35/35/14 36/36/14
f 32/32/14 31/31/14 41/37/14 42/38/14
f 44/39/14 45/40/14 34/34/14 33/33/14
f 44/39/15 33/33/15 46/41/15 47/42/15
f 75/43/15 110/44/15 105/45/15 102/46/15
f 32/47/15 42/48/15 48/49/15 29/50/15
f 49/51/16 50/52/16 51/53/16 52/54/16
f 113/55/17 53/56/17 51/53/17 118/57/17
f 33/33/15 36/36/15 54/58/15 46/41/15
f 36/36/18 35/35/18 55/59/18 54/58/18
f 56/60/13 57/61/13 30/30/13 29/29/13
f 37/62/16 43/63/16 58/64/16 59/65/16
f 62/66/19 63/67/19 38/68/19 39/69/19
f 65/70/19 62/66/19 39/69/19 66/71/19
f 67/72/16 40/73/16 68/74/16 69/75/16
f 45/40/14 70/76/14 71/77/14 72/78/14
f 42/48/15 73/79/15 74/80/15 48/49/15
f 42/38/14 41/37/14 70/76/14 73/81/14
f 15/82/16 18/83/16 4/84/16 1/85/16
f 66/71/19 39/69/19 4/86/19 18/83/19
f 70/76/14 41/37/14 75/87/14 71/77/14
f 76/88/15 77/89/15 43/63/15 67/72/15
f 73/79/15 44/39/15 47/42/15 74/80/15
f 73/81/14 70/76/14 45/40/14 44/39/14
f 67/72/15 43/63/15 15/82/15 1/90/15
f 74/80/15 47/42/15 78/91/15 79/92/15
f 50/52/19 49/51/19 80/93/19 81/94/19
f 82/95/13 48/49/13 83/96/13 84/97/13
f 49/51/19 85/98/19 86/99/19 80/93/19
f 54/58/18 55/59/18 87/100/18 88/101/18
f 46/41/15 54/58/15 88/101/15 89/102/15
f 90/103/19 30/104/19 57/105/19 91/106/19
f 85/98/19 90/103/19 91/106/19 86/99/19
f 29/50/15 48/49/15 82/95/15 56/107/15
f 55/59/19 50/52/19 81/94/19 87/100/19
f 47/42/14 46/41/14 92/108/14 93/109/14
f 3/110/13 2/111/13 57/61/13 56/60/13
f 79/92/15 78/91/15 77/89/15 76/88/15
f 81/94/19 80/93/19 65/70/19 60/112/19
f 82/95/15 79/92/15 76/88/15 61/113/15
f 80/93/19 86/99/19 62/66/19 65/70/19
f 88/101/18 87/100/18 16/28/18 17/27/18
f 89/102/15 88/101/15 17/27/15 64/114/15
f 91/106/19 57/105/19 2/115/19 63/67/19
f 86/99/19 91/106/19 63/67/19 62/66/19
f 56/107/15 82/95/15 61/113/15 3/116/15
f 87/100/19 81/94/19 60/112/19 16/28/19
f 78/91/15 89/102/15 64/114/15 77/89/15
f 94/117/15 95/118/15 59/65/15 58/64/15
f 96/119/15 97/120/15 69/75/15 68/74/15
f 83/96/15 98/121/15 99/122/15 84/97/15
f 93/109/15 92/108/15 100/123/15 101/124/15
f 76/88/18 67/72/18 69/75/18 97/120/18
f 79/92/16 82/95/16 84/97/16 99/122/16
f 40/73/13 61/113/13 96/119/13 68/74/13
f 46/41/18 89/102/18 100/123/18 92/108/18
f 89/102/16 78/91/16 101/124/16 100/123/16
f 64/114/18 37/62/18 59/65/18 95/118/18
f 74/80/18 79/92/18 99/122/18 98/121/18
f 61/113/14 76/88/14 97/120/14 96/119/14
f 77/89/14 64/114/14 95/118/14 94/117/14
f 48/49/14 74/80/14 98/121/14 83/96/14
f 43/63/13 77/89/13 94/117/13 58/64/13
f 78/91/13 47/42/13 93/109/13 101/124/13
f 50/52/16 55/59/16 117/125/16 119/126/16 120/127/16 118/57/16 51/53/16
f 71/128/19 75/43/19 102/46/19 103/129/19
f 41/37/14 31/31/14 109/130/14 111/131/14 112/132/14 110/133/14 75/87/14
f 72/78/19 71/128/19 103/129/19 52/54/19
f 53/56/19 72/78/19 52/54/19 51/53/19
f 31/31/13 30/30/13 106/134/13 109/130/13
f 55/59/18 35/35/18 114/135/18 117/125/18
f 34/34/14 45/40/14 72/78/14 53/56/14
f 85/98/16 49/51/16 52/54/16 103/129/16
f 90/103/16 85/98/16 103/129/16 102/46/16
f 35/35/14 34/34/14 53/56/14 113/55/14 115/136/14 116/137/14 114/135/14
f 28/17/15 15/16/15 43/63/15 37/62/15 26/21/15 27/19/15
f 25/23/15 26/21/15 37/62/15 64/114/15 17/27/15 24/25/15
f 65/70/19 66/71/19 104/138/19 60/112/19
f 21/22/19 22/24/19 23/26/19 16/28/19 60/112/19 104/138/19
f 19/18/19 20/20/19 21/22/19 104/138/19 66/71/19 18/15/19
f 5/4/15 6/6/15 7/8/15 38/68/15 39/69/15 4/1/15
f 8/10/15 9/12/15 2/14/15 63/67/15 38/68/15 7/8/15
f 14/3/19 1/2/19 67/72/19 40/73/19 12/7/19 13/5/19
f 12/7/19 40/73/19 61/113/19 3/116/19 10/11/19 11/9/19
f 105/45/20 110/44/20 112/139/20 107/140/20
f 107/140/21 112/139/21 111/141/21 108/142/21
f 108/143/22 111/131/22 109/130/22 106/134/22
f 113/55/23 118/57/23 120/127/23 115/136/23
f 115/136/24 120/127/24 119/126/24 116/137/24
f 116/137/25 119/126/25 117/125/25 114/135/25
f 30/104/16 90/103/16 102/46/16 105/45/16 107/140/16 108/142/16 106/144/16
