# Blender v2.81 (sub 16) OBJ File: ''
# www.blender.org
mtllib desk.mtl
o Cube.002
v 0.100000 0.600000 -0.090000
v 0.100000 0.650000 -0.090000
v 0.100000 0.650000 -0.900000
v 0.100000 0.600000 -0.900000
v 1.800000 0.600000 -0.900000
v 1.800000 0.650000 -0.900000
v 1.900000 0.650000 -0.900000
v 1.900000 0.600000 -0.900000
v 1.900000 0.650000 -0.090000
v 1.900000 0.600000 -0.090000
v 1.800000 0.650000 -0.090000
v 0.200000 0.600000 -0.090000
v 0.200000 0.650000 -0.090000
v 0.200000 0.600000 -0.900000
v 1.750000 0.600000 -0.900000
v 1.800000 0.000000 -0.900000
v 1.750000 0.000000 -0.900000
v 0.250000 0.600000 -0.090000
v 0.250000 0.650000 -0.090000
v 0.200000 0.650000 -0.900000
v 1.800000 0.600000 -0.090000
v 1.750000 0.650000 -0.900000
v 1.750000 0.650000 -0.090000
v 0.250000 0.650000 -0.900000
v 0.250000 0.600000 -0.900000
v 1.750000 0.600000 -0.090000
v 1.750000 0.000000 -0.090000
v 1.800000 0.000000 -0.090000
v 0.250000 0.000000 -0.090000
v 0.200000 0.000000 -0.090000
v 0.200000 0.000000 -0.900000
v 0.250000 0.000000 -0.900000
vt 0.625000 0.387500
vt 0.625000 0.387500
vt 0.625000 0.500000
vt 0.625000 0.500000
vt 0.625000 0.750000
vt 0.625000 0.750000
vt 0.625000 0.750000
vt 0.625000 0.750000
vt 0.625000 0.862500
vt 0.625000 0.862500
vt 0.737500 0.750000
vt 0.737500 0.750000
vt 0.625000 0.387500
vt 0.737500 0.500000
vt 0.737500 0.500000
vt 0.625000 0.500000
vt 0.625000 0.750000
vt 0.625000 0.750000
vt 0.625000 0.750000
vt 0.625000 0.387500
vt 0.737500 0.500000
vt 0.625000 0.500000
vt 0.625000 0.862500
vt 0.625000 0.862500
vt 0.625000 0.750000
vt 0.737500 0.750000
vt 0.625000 0.500000
vt 0.625000 0.500000
vt 0.625000 0.862500
vt 0.625000 0.862500
vt 0.625000 0.862500
vt 0.625000 0.862500
vt 0.625000 0.387500
vt 0.625000 0.387500
vt 0.625000 0.500000
vt 0.625000 0.500000
vn -1.0000 -0.0000 0.0000
vn -0.0000 0.0000 -1.0000
vn 1.0000 0.0000 -0.0000
vn 0.0000 1.0000 0.0000
vn 0.0000 0.0000 1.0000
vn 0.0000 -1.0000 0.0000
usemtl None.002
s 1
f 1/1/1 2/2/1 3/3/1 4/4/1
f 5/5/2 6/6/2 7/7/2 8/8/2
f 8/8/3 7/7/3 9/9/3 10/10/3
f 6/6/4 11/11/4 9/12/4 7/7/4
f 12/13/5 13/14/5 2/15/5 1/1/5
f 12/13/6 1/1/6 4/4/6 14/16/6
f 15/17/2 5/5/2 16/18/2 17/19/2
f 18/20/5 19/21/5 13/14/5 12/13/5
f 3/3/4 2/15/4 13/14/4 20/22/4
f 4/4/2 3/3/2 20/22/2 14/16/2
f 10/10/5 9/9/5 11/23/5 21/24/5
f 10/10/6 21/24/6 5/5/6 8/8/6
f 22/25/4 23/26/4 11/11/4 6/6/4
f 15/17/2 22/25/2 6/6/2 5/5/2
f 14/16/2 20/22/2 24/27/2 25/28/2
f 20/22/4 13/14/4 19/21/4 24/27/4
f 26/29/5 23/30/5 19/21/5 18/20/5
f 26/29/6 18/20/6 25/28/6 15/17/6
f 21/24/5 26/29/5 27/31/5 28/32/5
f 21/24/5 11/23/5 23/30/5 26/29/5
f 25/28/2 24/27/2 22/25/2 15/17/2
f 24/27/4 19/21/4 23/26/4 22/25/4
f 29/33/6 30/34/6 31/35/6 32/36/6
f 28/32/6 27/31/6 17/19/6 16/18/6
f 26/29/1 15/17/1 17/19/1 27/31/1
f 12/13/1 14/16/1 31/35/1 30/34/1
f 5/5/3 21/24/3 28/32/3 16/18/3
f 18/20/5 12/13/5 30/34/5 29/33/5
f 14/16/2 25/28/2 32/36/2 31/35/2
f 25/28/3 18/20/3 29/33/3 32/36/3
