# Blender v2.81 (sub 16) OBJ File: ''
# www.blender.org
mtllib shelve.mtl
o shelve_Cube.003
v 1.750000 0.750000 -0.410000
v 1.750000 0.800000 -0.410000
v 1.750000 0.800000 -0.010000
v 1.750000 0.750000 -0.010000
v 0.300000 0.750000 -0.010000
v 0.300000 0.800000 -0.010000
v 0.250000 0.800000 -0.010000
v 0.250000 0.750000 -0.010000
v 0.250000 0.800000 -0.410000
v 0.250000 0.750000 -0.410000
v 1.700000 0.750000 -0.410000
v 1.700000 0.800000 -0.410000
v 0.300000 0.000000 -0.010000
v 0.250000 0.000000 -0.010000
v 0.250000 0.000000 -0.410000
v 0.300000 0.000000 -0.410000
v 1.700000 0.800000 -0.010000
v 1.365000 0.800000 -0.010000
v 1.365000 0.800000 -0.410000
v 1.750000 0.000000 -0.010000
v 1.700000 0.000000 -0.010000
v 1.700000 0.000000 -0.410000
v 1.750000 0.000000 -0.410000
v 1.365000 0.750000 -0.410000
v 1.700000 0.750000 -0.010000
v 0.300000 0.800000 -0.410000
v 0.300000 0.750000 -0.410000
v 0.635000 0.000000 -0.010000
v 0.635000 0.000000 -0.410000
v 0.635000 0.750000 -0.010000
v 0.635000 0.800000 -0.010000
v 0.250000 0.410000 -0.410000
v 0.300000 0.410000 -0.410000
v 1.750000 0.410000 -0.010000
v 1.700000 0.410000 -0.010000
v 1.700000 0.410000 -0.410000
v 1.750000 0.410000 -0.410000
v 0.250000 0.410000 -0.010000
v 0.300000 0.410000 -0.010000
v 1.750000 0.050000 -0.410000
v 1.750000 0.050000 -0.010000
v 0.300000 0.050000 -0.010000
v 0.250000 0.050000 -0.010000
v 0.250000 0.050000 -0.410000
v 1.700000 0.050000 -0.410000
v 1.365000 0.000000 -0.410000
v 1.365000 0.050000 -0.410000
v 1.700000 0.050000 -0.010000
v 0.300000 0.050000 -0.410000
v 0.635000 0.050000 -0.010000
v 1.750000 0.400000 -0.410000
v 1.750000 0.400000 -0.010000
v 0.300000 0.400000 -0.010000
v 0.250000 0.400000 -0.010000
v 0.250000 0.400000 -0.410000
v 1.700000 0.400000 -0.410000
v 1.365000 0.400000 -0.410000
v 1.365000 0.410000 -0.410000
v 1.700000 0.400000 -0.010000
v 0.300000 0.400000 -0.410000
v 0.635000 0.400000 -0.010000
v 0.635000 0.410000 -0.010000
v 1.345000 0.050000 -0.410000
v 1.345000 0.400000 -0.410000
v 1.365000 0.410000 -0.010000
v 1.365000 0.400000 -0.010000
v 1.345000 0.410000 -0.410000
v 1.365000 0.050000 -0.010000
v 1.365000 0.000000 -0.010000
v 1.345000 0.000000 -0.410000
v 1.345000 0.750000 -0.410000
v 1.365000 0.750000 -0.010000
v 1.345000 0.800000 -0.410000
v 1.345000 0.800000 -0.010000
v 1.010000 0.800000 -0.010000
v 1.010000 0.800000 -0.410000
v 1.010000 0.750000 -0.410000
v 1.010000 0.000000 -0.410000
v 1.010000 0.050000 -0.410000
v 1.010000 0.400000 -0.410000
v 1.010000 0.410000 -0.410000
v 1.345000 0.400000 -0.010000
v 1.345000 0.050000 -0.010000
v 1.345000 0.410000 -0.010000
v 1.345000 0.000000 -0.010000
v 1.345000 0.750000 -0.010000
v 0.990000 0.050000 -0.410000
v 0.990000 0.400000 -0.410000
v 0.990000 0.410000 -0.410000
v 0.990000 0.000000 -0.410000
v 0.990000 0.750000 -0.410000
v 0.990000 0.800000 -0.410000
v 0.990000 0.800000 -0.010000
v 1.010000 0.410000 -0.010000
v 1.010000 0.400000 -0.010000
v 1.010000 0.050000 -0.010000
v 1.010000 0.000000 -0.010000
v 1.010000 0.750000 -0.010000
v 0.655000 0.800000 -0.010000
v 0.655000 0.800000 -0.410000
v 0.655000 0.750000 -0.410000
v 0.655000 0.000000 -0.410000
v 0.655000 0.050000 -0.410000
v 0.655000 0.400000 -0.410000
v 0.655000 0.410000 -0.410000
v 0.990000 0.400000 -0.010000
v 0.990000 0.050000 -0.010000
v 0.990000 0.410000 -0.010000
v 0.990000 0.000000 -0.010000
v 0.990000 0.750000 -0.010000
v 0.635000 0.050000 -0.410000
v 0.635000 0.400000 -0.410000
v 0.635000 0.410000 -0.410000
v 0.635000 0.750000 -0.410000
v 0.635000 0.800000 -0.410000
v 0.655000 0.410000 -0.010000
v 0.655000 0.400000 -0.010000
v 0.655000 0.050000 -0.010000
v 0.655000 0.000000 -0.010000
v 0.655000 0.750000 -0.010000
vt 0.625000 0.000000
vt 0.625000 0.000000
vt 0.625000 0.250000
vt 0.625000 0.250000
vt 0.625000 0.500000
vt 0.625000 0.500000
vt 0.625000 0.500000
vt 0.625000 0.500000
vt 0.625000 0.750000
vt 0.625000 0.750000
vt 0.625000 1.000000
vt 0.625000 1.000000
vt 0.625000 1.000000
vt 0.625000 1.000000
vt 0.375000 0.500000
vt 0.375000 0.500000
vt 0.375000 0.750000
vt 0.375000 0.750000
vt 0.875000 0.500000
vt 0.875000 0.500000
vt 0.875000 0.750000
vt 0.875000 0.750000
vt 0.875000 0.500000
vt 0.875000 0.750000
vt 0.125000 0.500000
vt 0.125000 0.500000
vt 0.125000 0.750000
vt 0.125000 0.750000
vt 0.625000 1.000000
vt 0.625000 1.000000
vt 0.625000 0.250000
vt 0.625000 0.250000
vt 0.625000 0.750000
vt 0.625000 0.750000
vt 0.125000 0.500000
vt 0.125000 0.750000
vt 0.625000 0.250000
vt 0.625000 0.250000
vt 0.500000 0.750000
vt 0.500000 0.750000
vt 0.500000 0.250000
vt 0.500000 0.250000
vt 0.500000 1.000000
vt 0.500000 1.000000
vt 0.500000 0.500000
vt 0.500000 0.500000
vt 0.500000 0.000000
vt 0.375000 0.000000
vt 0.375000 0.000000
vt 0.375000 0.250000
vt 0.375000 0.250000
vt 0.375000 0.500000
vt 0.375000 0.500000
vt 0.375000 0.750000
vt 0.375000 1.000000
vt 0.375000 1.000000
vt 0.375000 1.000000
vt 0.375000 1.000000
vt 0.375000 1.000000
vt 0.375000 1.000000
vt 0.375000 0.250000
vt 0.375000 0.250000
vt 0.375000 0.750000
vt 0.375000 0.250000
vt 0.375000 0.250000
vt 0.500000 0.000000
vt 0.500000 0.250000
vt 0.500000 0.500000
vt 0.500000 0.500000
vt 0.500000 0.750000
vt 0.500000 1.000000
vt 0.500000 1.000000
vt 0.500000 1.000000
vt 0.500000 1.000000
vt 0.500000 0.250000
vt 0.500000 0.750000
vt 0.500000 0.250000
vt 0.500000 0.250000
vt 0.375000 1.000000
vt 0.500000 1.000000
vt 0.500000 0.250000
vt 0.500000 0.250000
vt 0.500000 1.000000
vt 0.375000 0.250000
vt 0.375000 0.250000
vt 0.375000 1.000000
vt 0.625000 1.000000
vt 0.625000 0.250000
vt 0.625000 0.250000
vt 0.125000 0.500000
vt 0.125000 0.750000
vt 0.625000 1.000000
vt 0.875000 0.500000
vt 0.875000 0.750000
vt 0.875000 0.500000
vt 0.875000 0.750000
vt 0.625000 1.000000
vt 0.625000 1.000000
vt 0.375000 1.000000
vt 0.375000 1.000000
vt 0.500000 1.000000
vt 0.500000 1.000000
vt 0.500000 0.250000
vt 0.375000 0.250000
vt 0.500000 0.250000
vt 0.375000 0.250000
vt 0.625000 0.250000
vt 0.625000 0.250000
vt 0.125000 0.500000
vt 0.125000 0.750000
vt 0.375000 1.000000
vt 0.500000 1.000000
vt 0.500000 1.000000
vt 0.375000 1.000000
vt 0.625000 1.000000
vt 0.625000 1.000000
vt 0.875000 0.500000
vt 0.875000 0.750000
vt 0.500000 0.250000
vt 0.500000 0.250000
vt 0.375000 0.250000
vt 0.375000 0.250000
vt 0.625000 0.250000
vt 0.625000 0.250000
vt 0.125000 0.500000
vt 0.125000 0.750000
vt 0.875000 0.500000
vt 0.875000 0.750000
vt 0.625000 1.000000
vt 0.625000 1.000000
vt 0.375000 1.000000
vt 0.375000 1.000000
vt 0.500000 1.000000
vt 0.500000 1.000000
vt 0.500000 0.250000
vt 0.375000 0.250000
vt 0.500000 0.250000
vt 0.375000 0.250000
vt 0.625000 0.250000
vt 0.625000 0.250000
vt 0.125000 0.500000
vt 0.125000 0.750000
vt 0.375000 1.000000
vt 0.500000 1.000000
vt 0.500000 1.000000
vt 0.375000 1.000000
vt 0.625000 1.000000
vt 0.625000 1.000000
vt 0.875000 0.500000
vt 0.875000 0.750000
vt 0.500000 0.250000
vt 0.500000 0.250000
vt 0.375000 0.250000
vt 0.375000 0.250000
vt 0.625000 0.250000
vt 0.625000 0.250000
vt 0.125000 0.500000
vt 0.125000 0.750000
vn 1.0000 0.0000 0.0000
vn 0.0000 -0.0000 1.0000
vn -1.0000 0.0000 0.0000
vn 0.0000 0.0000 -1.0000
vn 0.0000 -1.0000 -0.0000
vn 0.0000 1.0000 0.0000
usemtl None
s 1
f 1/1/1 2/2/1 3/3/1 4/4/1
f 5/5/2 6/6/2 7/7/2 8/8/2
f 8/8/3 7/7/3 9/9/3 10/10/3
f 11/11/4 12/12/4 2/13/4 1/14/4
f 13/15/5 14/16/5 15/17/5 16/18/5
f 17/19/6 3/20/6 2/21/6 12/22/6
f 18/23/6 17/19/6 12/22/6 19/24/6
f 20/25/5 21/26/5 22/27/5 23/28/5
f 24/29/4 19/30/4 12/12/4 11/11/4
f 4/4/2 3/3/2 17/31/2 25/32/2
f 10/10/4 9/9/4 26/33/4 27/34/4
f 7/7/6 6/6/6 26/33/6 9/9/6
f 28/35/5 13/15/5 16/18/5 29/36/5
f 30/37/2 31/38/2 6/6/2 5/5/2
f 32/39/4 10/10/4 27/34/4 33/40/4
f 34/41/2 4/4/2 25/32/2 35/42/2
f 36/43/4 11/11/4 1/14/4 37/44/4
f 38/45/3 8/8/3 10/10/3 32/39/3
f 39/46/2 5/5/2 8/8/2 38/45/2
f 37/47/1 1/1/1 4/4/1 34/41/1
f 23/48/1 40/49/1 41/50/1 20/51/1
f 13/15/2 42/52/2 43/53/2 14/16/2
f 14/16/3 43/53/3 44/54/3 15/17/3
f 22/55/4 45/56/4 40/57/4 23/58/4
f 46/59/4 47/60/4 45/56/4 22/55/4
f 20/51/2 41/50/2 48/61/2 21/62/2
f 15/17/4 44/54/4 49/63/4 16/18/4
f 28/64/2 50/65/2 42/52/2 13/15/2
f 51/66/1 37/47/1 34/41/1 52/67/1
f 53/68/2 39/46/2 38/45/2 54/69/2
f 54/69/3 38/45/3 32/39/3 55/70/3
f 56/71/4 36/43/4 37/44/4 51/72/4
f 57/73/4 58/74/4 36/43/4 56/71/4
f 52/67/2 34/41/2 35/42/2 59/75/2
f 55/70/4 32/39/4 33/40/4 60/76/4
f 61/77/2 62/78/2 39/46/2 53/68/2
f 44/54/4 55/70/4 60/76/4 49/63/4
f 41/50/2 52/67/2 59/75/2 48/61/2
f 45/56/4 56/71/4 51/72/4 40/57/4
f 43/53/3 54/69/3 55/70/3 44/54/3
f 42/52/2 53/68/2 54/69/2 43/53/2
f 40/49/1 51/66/1 52/67/1 41/50/1
f 63/79/4 64/80/4 57/73/4 47/60/4
f 59/75/2 35/42/2 65/81/2 66/82/2
f 64/80/4 67/83/4 58/74/4 57/73/4
f 21/62/2 48/61/2 68/84/2 69/85/2
f 70/86/4 63/79/4 47/60/4 46/59/4
f 67/83/4 71/87/4 24/29/4 58/74/4
f 25/32/2 17/31/2 18/88/2 72/89/2
f 21/26/5 69/90/5 46/91/5 22/27/5
f 71/87/4 73/92/4 19/30/4 24/29/4
f 74/93/6 18/23/6 19/24/6 73/94/6
f 75/95/6 74/93/6 73/94/6 76/96/6
f 77/97/4 76/98/4 73/92/4 71/87/4
f 78/99/4 79/100/4 63/79/4 70/86/4
f 80/101/4 81/102/4 67/83/4 64/80/4
f 68/84/2 66/82/2 82/103/2 83/104/2
f 66/82/2 65/81/2 84/105/2 82/103/2
f 69/85/2 68/84/2 83/104/2 85/106/2
f 65/81/2 72/89/2 86/107/2 84/105/2
f 72/89/2 18/88/2 74/108/2 86/107/2
f 69/90/5 85/109/5 70/110/5 46/91/5
f 87/111/4 88/112/4 80/101/4 79/100/4
f 88/112/4 89/113/4 81/102/4 80/101/4
f 90/114/4 87/111/4 79/100/4 78/99/4
f 89/113/4 91/115/4 77/97/4 81/102/4
f 91/115/4 92/116/4 76/98/4 77/97/4
f 93/117/6 75/95/6 76/96/6 92/118/6
f 82/103/2 84/105/2 94/119/2 95/120/2
f 85/106/2 83/104/2 96/121/2 97/122/2
f 86/107/2 74/108/2 75/123/2 98/124/2
f 85/109/5 97/125/5 78/126/5 70/110/5
f 99/127/6 93/117/6 92/118/6 100/128/6
f 101/129/4 100/130/4 92/116/4 91/115/4
f 102/131/4 103/132/4 87/111/4 90/114/4
f 104/133/4 105/134/4 89/113/4 88/112/4
f 96/121/2 95/120/2 106/135/2 107/136/2
f 95/120/2 94/119/2 108/137/2 106/135/2
f 97/122/2 96/121/2 107/136/2 109/138/2
f 94/119/2 98/124/2 110/139/2 108/137/2
f 98/124/2 75/123/2 93/140/2 110/139/2
f 97/125/5 109/141/5 90/142/5 78/126/5
f 111/143/4 112/144/4 104/133/4 103/132/4
f 112/144/4 113/145/4 105/134/4 104/133/4
f 29/146/4 111/143/4 103/132/4 102/131/4
f 113/145/4 114/147/4 101/129/4 105/134/4
f 114/147/4 115/148/4 100/130/4 101/129/4
f 31/149/6 99/127/6 100/128/6 115/150/6
f 106/135/2 108/137/2 116/151/2 117/152/2
f 109/138/2 107/136/2 118/153/2 119/154/2
f 110/139/2 93/140/2 99/155/2 120/156/2
f 109/141/5 119/157/5 102/158/5 90/142/5
f 6/6/6 31/149/6 115/150/6 26/33/6
f 27/34/4 26/33/4 115/148/4 114/147/4
f 16/18/4 49/63/4 111/143/4 29/146/4
f 60/76/4 33/40/4 113/145/4 112/144/4
f 118/153/2 117/152/2 61/77/2 50/65/2
f 117/152/2 116/151/2 62/78/2 61/77/2
f 119/154/2 118/153/2 50/65/2 28/64/2
f 116/151/2 120/156/2 30/37/2 62/78/2
f 120/156/2 99/155/2 31/38/2 30/37/2
f 119/157/5 28/35/5 29/36/5 102/158/5
f 57/73/5 56/71/5 59/75/5 66/82/5
f 80/101/5 64/80/5 82/103/5 95/120/5
f 104/133/5 88/112/5 106/135/5 117/152/5
f 61/77/5 53/68/5 60/76/5 112/144/5
f 49/63/1 60/76/1 53/68/1 42/52/1
f 50/65/6 111/143/6 49/63/6 42/52/6
f 103/132/6 118/153/6 107/136/6 87/111/6
f 111/143/3 50/65/3 61/77/3 112/144/3
f 103/132/1 104/133/1 117/152/1 118/153/1
f 79/100/1 80/101/1 95/120/1 96/121/1
f 87/111/3 107/136/3 106/135/3 88/112/3
f 47/60/1 57/73/1 66/82/1 68/84/1
f 63/79/3 83/104/3 82/103/3 64/80/3
f 79/100/6 96/121/6 83/104/6 63/79/6
f 47/60/6 68/84/6 48/61/6 45/56/6
f 45/56/3 48/61/3 59/75/3 56/71/3
f 58/74/6 65/81/6 35/42/6 36/43/6
f 81/102/6 94/119/6 84/105/6 67/83/6
f 105/134/6 116/151/6 108/137/6 89/113/6
f 62/78/6 113/145/6 33/40/6 39/46/6
f 30/37/5 5/5/5 27/34/5 114/147/5
f 101/129/5 91/115/5 110/139/5 120/156/5
f 33/40/1 27/34/1 5/5/1 39/46/1
f 113/145/3 62/78/3 30/37/3 114/147/3
f 105/134/1 101/129/1 120/156/1 116/151/1
f 89/113/3 108/137/3 110/139/3 91/115/3
f 77/97/5 71/87/5 86/107/5 98/124/5
f 24/29/5 11/11/5 25/32/5 72/89/5
f 67/83/3 84/105/3 86/107/3 71/87/3
f 81/102/1 77/97/1 98/124/1 94/119/1
f 58/74/1 24/29/1 72/89/1 65/81/1
f 36/43/3 35/42/3 25/32/3 11/11/3
