# Blender v2.81 (sub 16) OBJ File: ''
# www.blender.org
mtllib table11.mtl
o Cube
v 0.900000 0.450000 -0.900000
v 0.900000 0.550000 -0.900000
v 0.900000 0.550000 -0.100000
v 0.900000 0.450000 -0.100000
v 0.100000 0.550000 -0.100000
v 0.100000 0.450000 -0.100000
v 0.100000 0.550000 -0.900000
v 0.100000 0.450000 -0.900000
v 0.550000 0.450000 -0.550000
v 0.550000 0.450000 -0.450000
v 0.550000 0.000000 -0.450000
v 0.550000 0.000000 -0.550000
v 0.450000 0.450000 -0.550000
v 0.450000 0.450000 -0.450000
v 0.450000 0.000000 -0.550000
v 0.450000 0.000000 -0.450000
vt 0.625000 0.000000
vt 0.625000 0.000000
vt 0.625000 0.250000
vt 0.625000 0.250000
vt 0.625000 0.500000
vt 0.625000 0.500000
vt 0.625000 0.750000
vt 0.625000 0.750000
vt 0.625000 1.000000
vt 0.625000 1.000000
vt 0.875000 0.500000
vt 0.875000 0.750000
vt 0.625000 0.173862
vt 0.625000 0.276138
vt 0.625000 0.276138
vt 0.625000 0.173862
vt 0.625000 0.576138
vt 0.625000 0.473862
vt 0.625000 0.576138
vt 0.625000 0.473862
vn 1.0000 0.0000 0.0000
vn 0.0000 -0.0000 1.0000
vn -1.0000 -0.0000 0.0000
vn 0.0000 0.0000 -1.0000
vn 0.0000 1.0000 0.0000
vn 0.0000 -1.0000 -0.0000
usemtl None
s 1
f 1/1/1 2/2/1 3/3/1 4/4/1
f 4/4/2 3/3/2 5/5/2 6/6/2
f 6/6/3 5/5/3 7/7/3 8/8/3
f 8/8/4 7/7/4 2/9/4 1/10/4
f 5/5/5 3/11/5 2/12/5 7/7/5
f 9/13/1 10/14/1 11/15/1 12/16/1
f 9/13/6 13/17/6 8/8/6 1/1/6
f 13/17/6 14/18/6 6/6/6 8/8/6
f 14/18/6 10/14/6 4/4/6 6/6/6
f 10/14/6 9/13/6 1/1/6 4/4/6
f 15/19/6 12/16/6 11/15/6 16/20/6
f 14/18/3 13/17/3 15/19/3 16/20/3
f 10/14/2 14/18/2 16/20/2 11/15/2
f 13/17/4 9/13/4 12/16/4 15/19/4
